<?xml version="1.0" standalone="no"?>
<!DOCTYPE svg PUBLIC "-//W3C//DTD SVG 20010904//EN"
 "http://www.w3.org/TR/2001/REC-SVG-20010904/DTD/svg10.dtd">
<svg version="1.0" xmlns="http://www.w3.org/2000/svg"
 width="1152.000000pt" height="1152.000000pt" viewBox="0 0 1152.000000 1152.000000"
 preserveAspectRatio="xMidYMid meet">
<metadata>
Created by potrace 1.11, written by Peter Selinger 2001-2013
</metadata>
<g transform="translate(0.000000,1152.000000) scale(0.100000,-0.100000)"
fill="#000000" stroke="none">
<path d="M3016 11202 c-4 -3 -35 -7 -69 -8 -57 -1 -83 -4 -177 -20 -56 -10
-138 -32 -204 -55 -61 -22 -257 -115 -266 -128 -3 -3 -17 -12 -32 -20 -16 -8
-28 -18 -28 -23 0 -4 -5 -8 -11 -8 -6 0 -16 -6 -24 -12 -7 -7 -28 -24 -47 -38
-53 -40 -238 -233 -238 -248 0 -5 -11 -19 -25 -32 -14 -13 -25 -28 -25 -33 0
-5 -9 -21 -20 -37 -20 -28 -111 -206 -114 -225 -2 -5 -9 -26 -18 -46 -14 -31
-45 -159 -63 -254 -8 -43 -20 -262 -15 -275 1 -3 4 -25 5 -50 2 -25 6 -61 10
-80 3 -19 7 -48 9 -65 12 -103 122 -399 156 -420 6 -3 10 -15 10 -26 0 -10 4
-19 8 -19 5 0 15 -12 23 -27 8 -16 16 -30 19 -33 3 -3 25 -32 49 -65 51 -68
176 -195 236 -240 22 -16 42 -33 45 -36 12 -16 152 -99 165 -99 8 0 15 -4 15
-9 0 -4 21 -16 48 -26 26 -10 52 -21 57 -25 16 -13 133 -51 215 -70 94 -23
167 -33 247 -34 35 -1 63 -5 63 -9 0 -5 5 -5 11 -2 5 4 45 8 87 10 80 3 183
18 240 34 17 5 32 7 32 4 0 -3 8 1 18 8 14 11 15 11 5 -1 -10 -10 -9 -19 5
-42 9 -15 20 -28 24 -28 4 0 8 -5 8 -11 0 -12 59 -92 72 -97 5 -2 8 -8 8 -12
0 -5 21 -38 48 -73 26 -36 54 -75 62 -87 14 -21 44 -62 63 -85 4 -5 25 -35 47
-65 22 -30 43 -60 47 -65 20 -25 63 -85 98 -135 21 -30 42 -59 47 -65 24 -29
108 -147 108 -151 0 -3 6 -11 13 -18 6 -8 19 -24 27 -36 8 -12 21 -28 28 -36
6 -7 12 -17 12 -22 0 -6 3 -12 8 -14 12 -5 72 -86 72 -97 0 -5 4 -11 8 -13 4
-1 37 -43 72 -93 70 -97 68 -96 103 -140 13 -16 39 -52 58 -79 19 -27 48 -68
64 -92 17 -23 40 -54 53 -68 12 -15 22 -31 22 -36 0 -6 5 -10 10 -10 6 0 10
-5 10 -11 0 -9 46 -73 77 -106 22 -24 25 -53 9 -78 -9 -13 -16 -31 -16 -40 0
-8 -3 -15 -8 -15 -4 0 -18 -33 -31 -72 -14 -40 -27 -77 -30 -83 -7 -12 -6 -11
-31 -120 -44 -198 -42 -429 5 -625 12 -50 13 -55 15 -55 1 0 3 -8 5 -18 8 -44
79 -209 120 -281 25 -44 45 -83 45 -88 0 -4 4 -8 9 -8 5 0 12 -8 16 -19 4 -12
-13 -45 -50 -100 -30 -45 -55 -85 -55 -90 0 -5 -3 -11 -8 -13 -9 -4 -166 -239
-170 -256 -2 -6 -8 -12 -13 -12 -5 0 -9 -4 -9 -9 0 -8 -111 -183 -137 -216 -5
-5 -24 -35 -43 -65 -19 -30 -38 -59 -43 -65 -4 -5 -45 -66 -90 -135 -44 -69
-84 -127 -88 -130 -3 -3 -9 -15 -13 -27 -4 -13 -11 -23 -14 -23 -4 0 -16 -16
-26 -35 -11 -19 -23 -35 -28 -35 -4 0 -8 -5 -8 -11 0 -6 -57 -97 -127 -202
-71 -105 -130 -196 -132 -201 -2 -6 -8 -15 -13 -21 -5 -5 -61 -89 -123 -185
-63 -96 -123 -186 -134 -200 -12 -14 -21 -29 -21 -35 0 -5 -11 -22 -23 -37
-19 -24 -27 -27 -60 -21 -20 3 -37 10 -37 15 0 5 -4 7 -8 4 -5 -3 -26 -1 -46
5 -158 43 -447 47 -611 8 -22 -6 -47 -11 -55 -13 -8 -1 -22 -5 -30 -8 -8 -3
-35 -11 -60 -19 -50 -14 -222 -88 -230 -99 -3 -3 -12 -10 -20 -14 -64 -31
-200 -125 -200 -138 0 -4 -5 -8 -11 -8 -15 0 -181 -172 -216 -224 -15 -22 -36
-50 -45 -60 -10 -11 -18 -23 -18 -27 0 -4 -17 -36 -38 -70 -59 -98 -116 -240
-138 -346 -2 -12 -9 -34 -14 -49 -6 -14 -8 -30 -4 -35 3 -5 2 -14 -2 -21 -9
-14 -12 -34 -19 -153 -7 -106 -7 -94 -1 -170 7 -87 15 -141 32 -218 9 -38 17
-74 18 -81 2 -6 8 -24 14 -39 7 -16 12 -32 12 -37 0 -28 102 -229 154 -304 23
-32 46 -65 51 -74 32 -49 175 -196 231 -238 22 -16 41 -32 44 -35 20 -25 266
-165 305 -174 5 -1 24 -8 40 -14 51 -22 191 -61 231 -65 22 -2 46 -6 54 -10 8
-3 53 -8 100 -10 47 -2 90 -5 95 -6 6 -1 12 -1 15 0 3 1 32 3 65 4 121 6 223
24 380 70 29 8 247 108 255 116 3 3 30 21 60 40 30 19 60 39 66 45 7 5 31 26
55 45 137 110 310 327 359 450 7 19 19 42 25 50 17 21 71 182 90 265 2 12 13
70 20 110 14 76 16 263 5 353 -14 114 -13 109 -35 192 -9 36 -18 70 -19 77 -1
7 -5 16 -9 19 -4 4 -7 14 -7 21 0 29 -86 201 -147 295 -70 108 -70 104 -15
175 13 18 20 33 16 33 -5 0 -1 5 9 11 9 5 17 17 17 24 0 8 5 15 10 15 6 0 10
6 10 14 0 8 3 16 8 18 4 2 27 35 52 73 25 39 48 75 53 80 4 6 68 102 142 215
74 113 139 212 145 220 5 8 61 94 125 190 63 96 118 180 123 186 5 5 15 21 22
34 7 14 19 31 27 38 7 7 13 19 13 27 0 7 3 15 8 17 11 5 147 212 144 221 -1 4
3 7 8 7 6 0 14 8 18 17 11 27 225 347 234 351 4 2 8 8 8 14 0 6 16 33 35 59
19 27 35 53 35 58 0 5 4 11 8 13 4 2 18 20 31 41 25 41 33 43 83 23 19 -8 46
-17 59 -19 13 -2 31 -7 39 -10 8 -3 40 -10 70 -16 30 -6 69 -13 85 -16 55 -11
289 -13 359 -3 54 7 71 6 77 -4 5 -7 13 -20 18 -28 6 -8 101 -152 212 -320
111 -168 237 -358 280 -423 44 -65 79 -121 79 -123 0 -3 6 -12 12 -19 29 -32
57 -74 64 -97 4 -10 9 -18 13 -18 3 0 17 -20 31 -45 14 -25 28 -45 32 -45 5 0
8 -5 8 -10 0 -6 5 -16 11 -23 5 -7 42 -61 82 -122 39 -60 75 -111 79 -113 5
-2 8 -8 8 -13 0 -9 36 -65 50 -79 3 -3 11 -17 19 -32 8 -16 18 -28 23 -28 4 0
8 -4 8 -10 0 -5 54 -91 120 -190 66 -99 120 -183 120 -188 0 -5 -24 -44 -52
-88 -29 -44 -64 -105 -78 -135 -14 -30 -29 -57 -35 -61 -5 -4 -6 -8 -1 -8 5 0
4 -6 -1 -12 -10 -14 -52 -126 -58 -156 -1 -9 -9 -37 -16 -62 -16 -56 -21 -91
-35 -210 -4 -32 -4 -206 0 -245 15 -149 70 -358 120 -450 5 -11 11 -22 12 -25
8 -33 99 -181 156 -254 119 -153 321 -320 469 -389 109 -51 169 -75 169 -70 0
3 6 1 13 -4 6 -6 35 -16 62 -22 28 -7 59 -15 70 -18 37 -9 129 -24 166 -27 19
-1 40 -5 45 -7 12 -6 186 -3 249 4 243 29 443 101 634 229 92 62 85 56 195
163 182 177 290 354 362 590 28 93 34 117 39 165 2 19 4 35 5 35 21 0 16 357
-6 455 -3 14 -7 34 -8 45 -6 39 -36 141 -57 195 -27 70 -107 230 -125 251 -8
8 -14 21 -14 27 0 7 -4 12 -8 12 -4 0 -15 12 -24 27 -9 16 -26 38 -38 51 -11
12 -18 22 -14 22 4 0 -40 46 -97 103 -185 182 -388 299 -639 367 -60 17 -91
22 -195 36 -61 8 -254 8 -310 0 -97 -14 -118 -18 -208 -41 -92 -24 -107 -24
-107 0 0 7 -4 15 -8 17 -11 4 -92 126 -92 138 0 5 -3 10 -7 12 -5 2 -29 35
-54 73 -25 39 -54 83 -65 99 -10 16 -23 36 -29 44 -5 9 -13 21 -18 26 -4 6
-22 34 -39 61 -18 28 -35 52 -38 55 -7 7 -29 42 -37 60 -4 8 -9 17 -13 20 -11
9 -110 162 -110 170 0 5 -6 13 -14 17 -7 4 -19 19 -26 33 -7 14 -103 159 -212
324 -109 164 -198 302 -198 306 0 5 -3 10 -7 12 -10 4 -53 65 -53 73 0 4 -6
12 -12 20 -11 10 -60 84 -103 154 -5 9 -20 31 -32 48 -13 17 -23 34 -23 38 0
4 18 26 39 49 79 83 103 113 156 191 69 103 142 247 152 299 2 11 7 24 12 30
8 10 42 140 56 211 22 113 22 322 1 478 -7 50 -48 202 -57 212 -5 5 -9 17 -9
27 0 10 -4 26 -9 36 -5 9 -19 40 -32 67 -47 102 -118 217 -194 313 -5 7 -48
50 -95 96 -118 117 -210 185 -340 249 -40 21 -79 42 -87 48 -7 6 -13 9 -13 6
0 -3 -28 6 -62 19 -80 31 -178 57 -225 58 -13 1 -23 4 -23 7 0 4 -10 7 -22 7
-45 1 -108 8 -114 15 -3 3 -16 2 -29 -3 -13 -5 -25 -6 -29 -3 -5 5 -65 8 -76
3 -3 -1 -25 -3 -50 -4 -25 -1 -74 -6 -110 -11 -36 -4 -72 -9 -80 -10 -9 0 -20
-4 -25 -7 -6 -3 -35 -11 -65 -18 -30 -7 -61 -18 -69 -24 -8 -6 -17 -11 -20
-10 -3 0 -15 -2 -26 -4 -11 -3 -21 -5 -22 -4 -1 0 -33 -14 -70 -33 l-68 -33
-32 37 c-18 20 -33 39 -33 42 0 5 -32 50 -68 94 -4 6 -23 32 -42 59 -46 65
-64 89 -135 186 -33 46 -73 102 -90 126 -16 23 -40 54 -52 68 -13 14 -21 26
-18 26 3 0 -2 8 -10 18 -7 9 -35 46 -62 82 -26 36 -50 67 -53 70 -3 3 -9 13
-15 22 -12 20 -157 221 -165 228 -3 3 -21 28 -40 55 -19 28 -38 52 -42 53 -4
2 -8 9 -8 16 0 7 -11 23 -25 36 -14 13 -25 29 -25 36 0 7 -4 14 -8 16 -7 3
-171 224 -197 265 -13 21 -36 51 -52 68 -7 8 -13 18 -13 22 0 5 -9 19 -19 30
-19 20 -19 21 10 49 16 15 29 32 29 38 0 5 7 16 15 25 46 51 55 62 56 69 1 4
12 23 24 43 39 60 91 171 116 244 13 39 26 72 29 75 3 3 6 14 8 25 1 11 4 25
6 30 5 17 25 118 32 160 3 22 7 99 9 170 4 220 -36 408 -128 605 -17 36 -31
68 -31 71 -2 15 -129 200 -168 244 -52 60 -132 139 -179 178 -93 76 -320 210
-356 210 -7 0 -13 4 -13 9 0 4 -3 7 -7 6 -5 -1 -38 8 -74 20 -36 12 -75 25
-87 27 -12 3 -32 8 -44 11 -13 3 -38 7 -55 8 -18 0 -33 4 -33 7 0 7 3 6 -116
12 -50 2 -96 7 -101 10 -6 4 -13 3 -17 -1z"/>
</g>
</svg>
