<svg xmlns="http://www.w3.org/2000/svg" xmlns:xlink="http://www.w3.org/1999/xlink" viewBox="0 0 117.38 147.09"><defs><style>.cls-1,.cls-2,.cls-3,.cls-4,.cls-5,.cls-6,.cls-7,.cls-8,.cls-9{fill:none;stroke-miterlimit:10;stroke-width:4px;}.cls-1{stroke:url(#linear-gradient);}.cls-2{stroke:url(#linear-gradient-2);}.cls-3{stroke:url(#linear-gradient-3);}.cls-4{stroke:url(#linear-gradient-4);}.cls-5{stroke:url(#linear-gradient-5);}.cls-6{stroke:url(#linear-gradient-6);}.cls-7{stroke:url(#linear-gradient-7);}.cls-8{stroke:url(#linear-gradient-8);}.cls-9{stroke:url(#linear-gradient-9);}</style><linearGradient id="linear-gradient" x1="0.27" y1="129.7" x2="117.11" y2="129.7" gradientUnits="userSpaceOnUse"><stop offset="0" stop-color="#80f24f"/><stop offset="1" stop-color="#32975b"/></linearGradient><linearGradient id="linear-gradient-2" x1="44.99" y1="7.72" x2="70.83" y2="7.72" xlink:href="#linear-gradient"/><linearGradient id="linear-gradient-3" x1="44.99" y1="82.3" x2="70.83" y2="82.3" xlink:href="#linear-gradient"/><linearGradient id="linear-gradient-4" x1="7.03" y1="104.5" x2="30.27" y2="104.5" xlink:href="#linear-gradient"/><linearGradient id="linear-gradient-5" x1="33.44" y1="84.81" x2="83.46" y2="84.81" xlink:href="#linear-gradient"/><linearGradient id="linear-gradient-6" x1="21.07" y1="86.41" x2="95.79" y2="86.41" xlink:href="#linear-gradient"/><linearGradient id="linear-gradient-7" x1="0" y1="87.79" x2="117.38" y2="87.79" xlink:href="#linear-gradient"/><linearGradient id="linear-gradient-8" x1="66.83" y1="43.08" x2="70.83" y2="43.08" xlink:href="#linear-gradient"/><linearGradient id="linear-gradient-9" x1="44.99" y1="43.08" x2="48.99" y2="43.08" xlink:href="#linear-gradient"/></defs><title>gradient icon 3</title><g id="Layer_2" data-name="Layer 2"><g id="Layer_1-2" data-name="Layer 1"><rect class="cls-1" x="2.27" y="114.31" width="112.83" height="30.78"/><ellipse class="cls-2" cx="57.91" cy="7.72" rx="10.92" ry="5.72"/><path class="cls-3" d="M68.83,78.44c0,3.15-4.89,5.72-10.92,5.72S47,81.59,47,78.44"/><ellipse class="cls-4" cx="18.65" cy="104.5" rx="9.62" ry="4.22"/><path class="cls-5" d="M46.39,77.7c-6.57,1.38-11,3.85-11,6.66,0,4.33,10.3,7.83,23,7.83s23-3.5,23-7.83c0-3.12-4.34-5.71-12.11-7"/><path class="cls-6" d="M47,68c-13.91,2.55-23.92,9.62-23.92,18,0,10.48,15.83,19,35.36,19s35.36-8.49,35.36-19c0-8.54-10.51-15.76-25-18.15"/><polyline class="cls-7" points="46.99 61.48 9.03 61.28 2.27 114.31 115.11 114.31 108.35 61.8 68.83 61.59"/><path class="cls-8" d="M68.83,78.44V7.72"/><path class="cls-9" d="M47,7.72V78.44"/></g></g></svg>