<svg xmlns="http://www.w3.org/2000/svg" xmlns:xlink="http://www.w3.org/1999/xlink" viewBox="0 0 159.27 124.06"><defs><style>.cls-1,.cls-10,.cls-11,.cls-2,.cls-3,.cls-4,.cls-5,.cls-6,.cls-7,.cls-8,.cls-9{fill:none;stroke-miterlimit:10;}.cls-1,.cls-2{stroke-width:3px;}.cls-1{stroke:url(#linear-gradient);}.cls-2{stroke:url(#linear-gradient-2);}.cls-10,.cls-11,.cls-3,.cls-4,.cls-5,.cls-6,.cls-7,.cls-8,.cls-9{stroke-width:5px;}.cls-3{stroke:url(#linear-gradient-3);}.cls-4{stroke:url(#linear-gradient-4);}.cls-5{stroke:url(#linear-gradient-5);}.cls-6{stroke:url(#linear-gradient-6);}.cls-7{stroke:url(#linear-gradient-7);}.cls-8{stroke:url(#linear-gradient-8);}.cls-9{stroke:url(#linear-gradient-9);}.cls-10{stroke:url(#linear-gradient-10);}.cls-11{stroke:url(#linear-gradient-11);}</style><linearGradient id="linear-gradient" x1="22.8" y1="15.69" x2="86.16" y2="15.69" gradientUnits="userSpaceOnUse"><stop offset="0" stop-color="#f0a32c"/><stop offset="1" stop-color="#ff795b"/></linearGradient><linearGradient id="linear-gradient-2" x1="39.57" y1="20.11" x2="69.4" y2="20.11" xlink:href="#linear-gradient"/><linearGradient id="linear-gradient-3" x1="102.29" y1="36.04" x2="107.29" y2="36.04" xlink:href="#linear-gradient"/><linearGradient id="linear-gradient-4" x1="0" y1="17.59" x2="107.29" y2="17.59" xlink:href="#linear-gradient"/><linearGradient id="linear-gradient-5" x1="0" y1="36.04" x2="5" y2="36.04" xlink:href="#linear-gradient"/><linearGradient id="linear-gradient-6" x1="0" y1="63.28" x2="53.64" y2="63.28" xlink:href="#linear-gradient"/><linearGradient id="linear-gradient-7" x1="51.98" y1="69.57" x2="159.27" y2="69.57" xlink:href="#linear-gradient"/><linearGradient id="linear-gradient-8" x1="51.98" y1="88.02" x2="56.98" y2="88.02" xlink:href="#linear-gradient"/><linearGradient id="linear-gradient-9" x1="154.27" y1="88.02" x2="159.27" y2="88.02" xlink:href="#linear-gradient"/><linearGradient id="linear-gradient-10" x1="51.98" y1="115.26" x2="105.63" y2="115.26" xlink:href="#linear-gradient"/><linearGradient id="linear-gradient-11" x1="104.79" y1="115.26" x2="159.27" y2="115.26" xlink:href="#linear-gradient"/></defs><title>gradient icon 5</title><g id="Layer_2" data-name="Layer 2"><g id="Layer_1-2" data-name="Layer 1"><path class="cls-1" d="M24.3,22.62c0-16.48,60.36-16.48,60.36,0"/><ellipse class="cls-2" cx="54.48" cy="20.11" rx="13.41" ry="2.52"/><line class="cls-3" x1="104.79" y1="17.59" x2="104.79" y2="54.48"/><ellipse class="cls-4" cx="53.64" cy="17.59" rx="51.14" ry="15.09"/><line class="cls-5" x1="2.5" y1="54.48" x2="2.5" y2="17.59"/><path class="cls-6" d="M2.5,54.48c0,8.34,22.9,15.09,51.14,15.09"/><ellipse class="cls-7" cx="105.63" cy="69.57" rx="51.14" ry="15.09"/><line class="cls-8" x1="54.48" y1="106.46" x2="54.48" y2="69.57"/><line class="cls-9" x1="156.77" y1="69.57" x2="156.77" y2="106.46"/><path class="cls-10" d="M54.48,106.46c0,8.34,22.9,15.1,51.15,15.1"/><path class="cls-11" d="M156.77,106.46c0,8.34-23.74,15.1-52,15.1"/></g></g></svg>