<svg xmlns="http://www.w3.org/2000/svg" xmlns:xlink="http://www.w3.org/1999/xlink" viewBox="0 0 147.15 137.72"><defs><style>.cls-1,.cls-10,.cls-11,.cls-12,.cls-13,.cls-14,.cls-15,.cls-16,.cls-2,.cls-3,.cls-4,.cls-5,.cls-6,.cls-7,.cls-8,.cls-9{fill:none;stroke-miterlimit:10;stroke-width:5px;}.cls-1{stroke:url(#linear-gradient);}.cls-2{stroke:url(#linear-gradient-2);}.cls-3{stroke:url(#linear-gradient-3);}.cls-4{stroke:url(#linear-gradient-4);}.cls-5{stroke:url(#linear-gradient-5);}.cls-6{stroke:url(#linear-gradient-6);}.cls-7{stroke:url(#linear-gradient-7);}.cls-8{stroke:url(#linear-gradient-8);}.cls-9{stroke:url(#linear-gradient-9);}.cls-10{stroke:url(#linear-gradient-10);}.cls-11{stroke:url(#linear-gradient-11);}.cls-12{stroke:url(#linear-gradient-12);}.cls-13{stroke:url(#linear-gradient-13);}.cls-14{stroke:url(#linear-gradient-14);}.cls-15{stroke:url(#linear-gradient-15);}.cls-16{stroke:url(#linear-gradient-16);}.cls-17{fill:url(#linear-gradient-17);}.cls-18{fill:url(#linear-gradient-18);}.cls-19{fill:url(#linear-gradient-19);}.cls-20{fill:url(#linear-gradient-20);}</style><linearGradient id="linear-gradient" x1="7.92" y1="60.47" x2="139.62" y2="60.47" gradientUnits="userSpaceOnUse"><stop offset="0" stop-color="#ce6e9b"/><stop offset="1" stop-color="#323c5b"/></linearGradient><linearGradient id="linear-gradient-2" x1="0" y1="126.79" x2="147.15" y2="126.79" xlink:href="#linear-gradient"/><linearGradient id="linear-gradient-3" x1="9.62" y1="128.57" x2="15.32" y2="128.57" xlink:href="#linear-gradient"/><linearGradient id="linear-gradient-4" x1="22.93" y1="128.57" x2="53.97" y2="128.57" xlink:href="#linear-gradient"/><linearGradient id="linear-gradient-5" x1="20.28" y1="19.6" x2="42.38" y2="19.6" xlink:href="#linear-gradient"/><linearGradient id="linear-gradient-6" x1="50.05" y1="19.6" x2="72.16" y2="19.6" xlink:href="#linear-gradient"/><linearGradient id="linear-gradient-7" x1="77.29" y1="19.6" x2="99.4" y2="19.6" xlink:href="#linear-gradient"/><linearGradient id="linear-gradient-8" x1="105.8" y1="19.6" x2="127.9" y2="19.6" xlink:href="#linear-gradient"/><linearGradient id="linear-gradient-9" x1="20.28" y1="48.11" x2="42.38" y2="48.11" xlink:href="#linear-gradient"/><linearGradient id="linear-gradient-10" x1="50.05" y1="48.11" x2="72.16" y2="48.11" xlink:href="#linear-gradient"/><linearGradient id="linear-gradient-11" x1="77.29" y1="48.11" x2="99.4" y2="48.11" xlink:href="#linear-gradient"/><linearGradient id="linear-gradient-12" x1="105.8" y1="48.11" x2="127.9" y2="48.11" xlink:href="#linear-gradient"/><linearGradient id="linear-gradient-13" x1="20.28" y1="76.62" x2="42.38" y2="76.62" xlink:href="#linear-gradient"/><linearGradient id="linear-gradient-14" x1="50.05" y1="76.62" x2="72.16" y2="76.62" xlink:href="#linear-gradient"/><linearGradient id="linear-gradient-15" x1="77.29" y1="76.62" x2="99.4" y2="76.62" xlink:href="#linear-gradient"/><linearGradient id="linear-gradient-16" x1="105.8" y1="76.62" x2="127.9" y2="76.62" xlink:href="#linear-gradient"/><linearGradient id="linear-gradient-17" x1="22.78" y1="103.23" x2="39.88" y2="103.23" xlink:href="#linear-gradient"/><linearGradient id="linear-gradient-18" x1="52.55" y1="103.23" x2="69.66" y2="103.23" xlink:href="#linear-gradient"/><linearGradient id="linear-gradient-19" x1="79.79" y1="103.23" x2="96.9" y2="103.23" xlink:href="#linear-gradient"/><linearGradient id="linear-gradient-20" x1="108.3" y1="103.23" x2="125.4" y2="103.23" xlink:href="#linear-gradient"/></defs><title>gradient icon 6</title><g id="Layer_2" data-name="Layer 2"><g id="Layer_1-2" data-name="Layer 1"><rect class="cls-1" x="10.42" y="2.5" width="126.7" height="115.93"/><path class="cls-2" d="M136.81,118.12q10.45,8.55,7,17.1H2.5q-.17-13.32,7.61-17.1"/><line class="cls-3" x1="9.62" y1="128.57" x2="15.32" y2="128.57"/><line class="cls-4" x1="22.93" y1="128.57" x2="53.97" y2="128.57"/><circle class="cls-5" cx="31.33" cy="19.6" r="8.55"/><circle class="cls-6" cx="61.1" cy="19.6" r="8.55"/><circle class="cls-7" cx="88.34" cy="19.6" r="8.55"/><circle class="cls-8" cx="116.85" cy="19.6" r="8.55"/><circle class="cls-9" cx="31.33" cy="48.11" r="8.55"/><circle class="cls-10" cx="61.1" cy="48.11" r="8.55"/><circle class="cls-11" cx="88.34" cy="48.11" r="8.55"/><circle class="cls-12" cx="116.85" cy="48.11" r="8.55"/><circle class="cls-13" cx="31.33" cy="76.62" r="8.55"/><circle class="cls-14" cx="61.1" cy="76.62" r="8.55"/><circle class="cls-15" cx="88.34" cy="76.62" r="8.55"/><circle class="cls-16" cx="116.85" cy="76.62" r="8.55"/><circle class="cls-17" cx="31.33" cy="103.23" r="8.55"/><circle class="cls-18" cx="61.1" cy="103.23" r="8.55"/><circle class="cls-19" cx="88.34" cy="103.23" r="8.55"/><circle class="cls-20" cx="116.85" cy="103.23" r="8.55"/></g></g></svg>