<svg xmlns="http://www.w3.org/2000/svg" xmlns:xlink="http://www.w3.org/1999/xlink" viewBox="0 0 119.74 140.97"><defs><style>.cls-1{fill:url(#linear-gradient);}.cls-2{fill:url(#linear-gradient-2);}.cls-3{fill:url(#linear-gradient-3);}.cls-4{fill:url(#linear-gradient-4);}.cls-5{fill:url(#linear-gradient-5);}.cls-6{fill:url(#linear-gradient-6);}</style><linearGradient id="linear-gradient" x1="62.26" y1="90.86" x2="119.74" y2="90.86" gradientUnits="userSpaceOnUse"><stop offset="0" stop-color="#05c4fd"/><stop offset="0.11" stop-color="#04b1ef"/><stop offset="0.38" stop-color="#028ad2"/><stop offset="0.63" stop-color="#016dbd"/><stop offset="0.84" stop-color="#005bb0"/><stop offset="1" stop-color="#0055ab"/></linearGradient><linearGradient id="linear-gradient-2" x1="57.47" y1="34.57" x2="62.26" y2="34.57" xlink:href="#linear-gradient"/><linearGradient id="linear-gradient-3" x1="0" y1="34.57" x2="119.74" y2="34.57" xlink:href="#linear-gradient"/><linearGradient id="linear-gradient-4" x1="71.84" y1="92.58" x2="110.16" y2="92.58" xlink:href="#linear-gradient"/><linearGradient id="linear-gradient-5" x1="0" y1="90.86" x2="57.47" y2="90.86" xlink:href="#linear-gradient"/><linearGradient id="linear-gradient-6" x1="9.58" y1="92.58" x2="47.9" y2="92.58" xlink:href="#linear-gradient"/></defs><title>gradient icon 4</title><g id="Layer_2" data-name="Layer 2"><g id="Layer_1-2" data-name="Layer 1"><path class="cls-1" d="M62.26,141l57.48-33.18V40.74L62.26,73.92Zm4.79-64.28L115,49v56l-47.9,27.65Z"/><polygon class="cls-2" points="59.87 11.06 57.47 12.45 57.47 56.69 59.87 58.07 62.26 56.69 62.26 12.45 59.87 11.06"/><path class="cls-3" d="M59.87,0,0,34.57,59.87,69.13l59.87-34.56ZM9.58,34.57l50.29-29,50.29,29-50.29,29Z"/><polygon class="cls-4" points="110.16 102.27 71.84 80.14 71.84 85.67 105.37 105.02 110.16 102.27"/><path class="cls-5" d="M57.47,73.92,0,40.74v67.05L57.47,141Zm-4.79,58.75L4.79,105V49L52.68,76.69Z"/><polygon class="cls-6" points="9.58 102.27 47.9 80.14 47.9 85.67 14.37 105.02 9.58 102.27"/></g></g></svg>