<svg xmlns="http://www.w3.org/2000/svg" xmlns:xlink="http://www.w3.org/1999/xlink" viewBox="0 0 120.08 120.08"><defs><style>.cls-1{opacity:0.83;fill:url(#linear-gradient);}</style><linearGradient id="linear-gradient" y1="60.04" x2="120.08" y2="60.04" gradientUnits="userSpaceOnUse"><stop offset="0" stop-color="#e55b2f"/><stop offset="1" stop-color="#754b8e"/></linearGradient></defs><title>gradient icon 2</title><g id="Layer_2" data-name="Layer 2"><g id="Layer_1-2" data-name="Layer 1"><path class="cls-1" d="M109.71,74.5a10.15,10.15,0,0,0-2.71.41L97.09,60,107,45.17a10.15,10.15,0,0,0,2.71.41,10.38,10.38,0,1,0-7.33-17.7L70.27,11.82a11.49,11.49,0,0,0,.14-1.45,10.37,10.37,0,0,0-20.74,0,9.89,9.89,0,0,0,.15,1.45L17.71,27.88a10.37,10.37,0,1,0-7.34,17.7,10.09,10.09,0,0,0,2.71-.41L23,60,13.08,74.91a10.09,10.09,0,0,0-2.71-.41A10.38,10.38,0,1,0,17.7,92.21l32.12,16.05a10,10,0,0,0-.15,1.45,10.37,10.37,0,1,0,20.74,0,11.67,11.67,0,0,0-.14-1.45l32.11-16.05a10.37,10.37,0,1,0,7.33-17.71Zm-9.56,1.93L89.66,71.19,93.16,66ZM62.75,99.75A10.09,10.09,0,0,0,60,99.34a10.56,10.56,0,0,0-2.71.4L40,73.73l12.72-6.36a10.37,10.37,0,0,0,14.67,0l12.71,6.36ZM57.33,20.34a9.38,9.38,0,0,0,5.42,0l17.34,26L67.37,52.71a10.36,10.36,0,0,0-14.66,0L40,46.35ZM63.86,60A3.82,3.82,0,1,1,60,56.22,3.82,3.82,0,0,1,63.86,60Zm-14-1.45a7.08,7.08,0,0,0,0,2.9L36.33,68.24,30.87,60l5.46-8.19Zm20.45,2.9A11.49,11.49,0,0,0,70.41,60a11.49,11.49,0,0,0-.14-1.45l13.48-6.74L89.22,60l-5.46,8.2Zm19.39-12.6,10.49-5.24-7,10.49Zm20-17.51a3.83,3.83,0,1,1-3.82,3.83A3.83,3.83,0,0,1,109.71,31.38ZM99.49,36.65,86,43.4,69.6,18.81l29.89,15a9.75,9.75,0,0,0-.15,1.45A9.76,9.76,0,0,0,99.49,36.65ZM60,6.55a3.82,3.82,0,1,1-3.82,3.82A3.82,3.82,0,0,1,60,6.55ZM50.48,18.81,34.09,43.4,20.6,36.65a11.33,11.33,0,0,0,.14-1.44,11.31,11.31,0,0,0-.14-1.45ZM6.55,35.21A3.82,3.82,0,1,1,10.37,39,3.83,3.83,0,0,1,6.55,35.21Zm13.39,8.44,10.49,5.24-3.5,5.25ZM30.42,71.19,19.94,76.43l7-10.48ZM10.37,88.7a3.83,3.83,0,1,1,3.82-3.82A3.83,3.83,0,0,1,10.37,88.7ZM20.6,83.43l13.49-6.75,16.39,24.59L20.6,86.33a11.67,11.67,0,0,0,.14-1.45A11.31,11.31,0,0,0,20.6,83.43ZM60,113.53a3.82,3.82,0,1,1,3.82-3.82A3.82,3.82,0,0,1,60,113.53Zm9.57-12.26L86,76.68l13.49,6.75a9.75,9.75,0,0,0-.15,1.45,10,10,0,0,0,.15,1.45Zm40.1-12.57a3.83,3.83,0,1,1,3.82-3.82A3.83,3.83,0,0,1,109.71,88.7Z"/></g></g></svg>