<svg width="1600" height="1600" viewBox="0 0 1600 1600" fill="none" xmlns="http://www.w3.org/2000/svg">
<path fill-rule="evenodd" clip-rule="evenodd" d="M760.8 211.316C724.964 213.204 700.364 217.12 660 227.372C656.48 228.264 651.612 229.396 649.18 229.884C646.748 230.372 644.368 231.404 643.884 232.184C643.404 232.964 641.296 233.6 639.2 233.6C637.104 233.6 634.944 234.32 634.4 235.2C633.856 236.08 631.772 236.8 629.772 236.8C627.772 236.8 625.692 237.24 625.152 237.78C624.612 238.32 619.632 240.376 614.084 242.348C595.848 248.832 588.208 252.436 550.256 272.444C533.02 281.532 492.12 308.288 477.6 319.976C473.2 323.52 466 329.22 461.6 332.644C446.556 344.348 398.94 394.472 382.876 415.516C376.98 423.24 350.4 462.144 350.4 463.048C350.4 463.32 346.692 469.944 342.156 477.772C328.392 501.532 326.12 506.184 305.524 552.8C301.332 562.288 293.96 582.872 291.2 592.8C290.464 595.44 288.328 602.64 286.452 608.8C258.716 699.804 258.104 820.828 284.924 912C287.64 921.24 290.464 930.96 291.2 933.6C293.876 943.22 298.616 956.664 302.484 965.6C313.592 991.28 330.616 1027.72 333.676 1032.36C335.832 1035.65 337.6 1038.72 337.6 1039.2C337.6 1039.67 339.288 1042.75 341.348 1046.03C343.408 1049.32 347.476 1056.32 350.388 1061.6C353.296 1066.88 356.172 1071.56 356.776 1072C357.756 1072.72 376 1098.97 380 1105.42C380.88 1106.84 384.12 1111 387.2 1114.66C390.28 1118.32 396.4 1125.8 400.8 1131.29C411.488 1144.62 460.584 1193.77 474.216 1204.8C480.2 1209.64 487.728 1215.79 490.948 1218.46C494.168 1221.14 502.2 1226.9 508.8 1231.25C515.4 1235.61 521.752 1240.08 522.916 1241.19C524.076 1242.3 525.644 1243.2 526.4 1243.2C527.156 1243.2 528.724 1244.11 529.884 1245.22C532.412 1247.64 539.776 1252.49 546.4 1256.1C549.04 1257.54 557.32 1262.06 564.8 1266.16C581.96 1275.56 612.336 1290.36 617.6 1291.9C619.8 1292.54 624.652 1294.44 628.384 1296.13C632.112 1297.82 636.264 1299.2 637.604 1299.2C638.944 1299.2 641.292 1299.85 642.82 1300.64C644.348 1301.44 648.84 1303 652.8 1304.12C656.76 1305.24 660.684 1306.75 661.52 1307.48C662.356 1308.2 665.372 1308.8 668.224 1308.8C671.076 1308.8 673.808 1309.44 674.292 1310.22C674.776 1311 677.516 1312.05 680.384 1312.54C683.252 1313.02 689.2 1314.21 693.6 1315.18C756.66 1329 833.712 1329.32 898.4 1316.04C907.504 1314.16 927.68 1308.86 932 1307.21C933.76 1306.54 942.62 1303.6 951.692 1300.69C960.764 1297.78 968.548 1294.81 968.988 1294.1C969.428 1293.38 970.98 1292.8 972.432 1292.8C975.628 1292.8 1013.46 1275.83 1019.47 1271.7C1021.82 1270.08 1027.58 1266.72 1032.27 1264.22C1056.61 1251.26 1105.49 1216.93 1116.8 1204.85C1118.12 1203.44 1121.36 1200.64 1124 1198.63C1126.64 1196.62 1136.46 1187.47 1145.82 1178.29C1169.69 1154.88 1168.13 1152.9 1167.62 1206L1167.2 1250.4L1155.57 1250.87L1143.94 1251.34L1144.37 1284.47L1144.8 1317.6H1213.6H1282.4L1282.83 1284.48L1283.26 1251.36L1273.23 1250.88L1263.2 1250.4L1262.4 1004.06L1261.6 757.732L1256.44 756.676C1246.76 754.696 1228.22 738.016 1219.76 723.688C1215.14 715.852 1213.52 716.056 1207.65 725.22C1197.15 741.632 1179.57 756.8 1171.06 756.8C1167.06 756.8 1165.74 758.328 1158.97 770.8C1154.8 778.5 1149 788.212 1146.09 792.384C1143.18 796.556 1140.8 800.584 1140.8 801.336C1140.8 802.088 1139.36 804.008 1137.6 805.6C1135.84 807.192 1134.4 809.404 1134.4 810.516C1134.4 811.624 1133.86 812.772 1133.2 813.068C1132.54 813.36 1126.64 820.8 1120.08 829.6C1113.52 838.4 1105.18 848.84 1101.56 852.8C1097.92 856.76 1093.93 861.504 1092.68 863.344C1082.52 878.256 995.096 963.284 964.62 987.884C959.496 992.016 941.804 1006.99 940.8 1008.04C940.36 1008.5 935.68 1012.46 930.4 1016.84C925.12 1021.22 920.44 1025.16 920 1025.6C918.092 1027.51 901.092 1041.25 895.74 1045.21C892.516 1047.6 888.916 1050.49 887.74 1051.63C886.564 1052.77 883.08 1055.47 880 1057.63C873.072 1062.48 869.924 1064.98 862.356 1071.6C859.088 1074.46 855.876 1076.8 855.216 1076.8C854.56 1076.8 851.624 1078.78 848.696 1081.2C845.764 1083.62 840.412 1087.76 836.8 1090.4C833.188 1093.04 827.928 1097 825.112 1099.2C822.292 1101.4 818.804 1103.92 817.36 1104.8C815.912 1105.68 808.82 1110.72 801.6 1116C794.38 1121.28 787.284 1126.32 785.836 1127.2C784.388 1128.08 782.84 1129.2 782.4 1129.68C781.96 1130.16 779.08 1132.3 776 1134.43C772.92 1136.57 769.68 1138.87 768.8 1139.56C761.288 1145.41 746.192 1155.73 743.064 1157.15C740.94 1158.12 739.2 1159.52 739.2 1160.26C739.2 1161 738.232 1161.6 737.048 1161.6C735.864 1161.6 733.592 1163.04 732 1164.8C730.408 1166.56 728.248 1168 727.2 1168C726.152 1168 723.992 1169.44 722.4 1171.2C720.808 1172.96 718.648 1174.4 717.6 1174.4C716.552 1174.4 714.392 1175.84 712.8 1177.6C711.208 1179.36 709.288 1180.8 708.536 1180.8C707.784 1180.8 703.58 1183.32 699.2 1186.4C694.82 1189.48 690.916 1192 690.528 1192C690.144 1192 685.492 1194.88 680.192 1198.4C670.416 1204.89 666.584 1206.09 664.8 1203.2C664.256 1202.32 662.792 1201.6 661.544 1201.6C657.628 1201.6 639.152 1192.94 609.6 1177.24C594.512 1169.23 557.94 1144.86 550.66 1137.98C549.484 1136.86 545.884 1134.01 542.66 1131.64C533.732 1125.07 499.996 1091.78 489.828 1079.5C478.596 1065.94 466.912 1051.08 464.8 1047.67C463.92 1046.25 459.452 1039.7 454.876 1033.11C434.984 1004.49 413.788 960.36 400.932 920.796C397.784 911.12 394.488 900.988 393.604 898.288C392.724 895.584 392 891.848 392 889.98C392 888.116 391.356 886.192 390.568 885.704C389.78 885.22 388.76 882.116 388.3 878.812C387.84 875.504 386.62 869.56 385.592 865.6C384.56 861.64 383.152 853.72 382.456 848C381.76 842.28 380.284 831.12 379.176 823.2C378.016 814.9 377.14 791.852 377.104 768.8C377.04 728.78 377.996 716.74 384.836 671.2C385.364 667.68 386.424 663.36 387.192 661.6C387.956 659.84 388.992 656.06 389.492 653.2C389.992 650.34 390.808 645.66 391.308 642.8C391.808 639.94 392.808 636.16 393.528 634.4C394.248 632.64 395.736 627.96 396.836 624C398.876 616.668 408.496 588.096 413.808 573.6C417.724 562.916 440.276 517.568 445.472 509.928C447.74 506.588 449.6 503.58 449.6 503.244C449.6 502.328 469.108 472.932 470.332 472C470.912 471.56 475.74 465.44 481.068 458.4C504.336 427.644 579.448 361.6 591.156 361.6C591.652 361.6 596.544 358.9 602.028 355.6C607.512 352.3 615.96 347.704 620.8 345.388C642.684 334.912 651.156 331.2 653.18 331.2C654.38 331.2 656.044 330.608 656.88 329.888C657.716 329.168 663.8 326.932 670.4 324.924C677 322.916 683.652 320.624 685.18 319.836C686.708 319.048 690.084 318.4 692.684 318.4C695.284 318.4 697.8 317.772 698.276 317C698.752 316.232 702.936 315.196 707.572 314.7C712.208 314.208 723.2 312.628 732 311.192C769.02 305.152 827.78 306.3 872.8 313.94C883.36 315.732 894.704 317.544 898.012 317.968C901.316 318.392 904.42 319.38 904.904 320.168C905.392 320.956 907.368 321.612 909.296 321.624C913.124 321.652 924.08 325.148 925.836 326.904C926.44 327.508 928.572 328 930.572 328C932.572 328 934.656 328.72 935.2 329.6C935.744 330.48 937.452 331.2 938.992 331.2C940.536 331.2 944.78 332.64 948.424 334.4C952.064 336.16 955.808 337.6 956.744 337.6C957.68 337.6 959.692 338.284 961.22 339.12C962.748 339.956 973 344.952 984 350.224C1012.29 363.78 1011.28 362.684 1003.4 371.292C999.816 375.2 996.868 378.924 996.844 379.56C996.712 383.148 1040.45 423.868 1042.94 422.48C1044.4 421.664 1066.7 399.844 1092.5 373.988L1139.4 326.976L1116.75 304.288C1090.6 278.092 1093.79 279.64 1084.8 288.8C1075.54 298.236 1075.93 298.324 1056.78 282.68C1054.12 280.512 1048.9 277.148 1045.17 275.204C1041.44 273.26 1038.01 271.068 1037.56 270.336C1036.68 268.908 1036 268.532 1012.8 256.54C999.876 249.86 985.6 243.524 972 238.428C966.904 236.52 959.44 233.348 956.42 231.812C954.892 231.036 952.236 230.4 950.516 230.4C948.796 230.4 946.944 229.68 946.4 228.8C945.856 227.92 943.336 227.2 940.8 227.2C938.264 227.2 935.792 226.556 935.304 225.768C934.82 224.98 931.716 223.932 928.412 223.432C925.104 222.932 918.08 221.752 912.8 220.808C895.312 217.68 884.152 216.04 870.4 214.576C862.92 213.78 855 212.74 852.8 212.26C845.736 210.732 783.936 210.096 760.8 211.316ZM1167.61 936.256L1168.02 1044.47L1154.34 1059.84C1134.12 1082.54 1136 1091.98 1136.03 967.6L1136.06 860L1148.83 844.904C1155.85 836.6 1161.6 829.168 1161.6 828.388C1161.6 827.604 1162.86 827.208 1164.4 827.504C1167.03 828.012 1167.22 834.656 1167.61 936.256ZM1128 980.516V1087.43L1114.69 1100.12C1095.78 1118.13 1083.83 1128 1080.91 1128C1078.66 1128 1078.4 1117.38 1078.4 1023.11V918.22L1100.4 895.996C1112.5 883.776 1123.66 873.736 1125.2 873.688C1127.84 873.604 1128 879.724 1128 980.516ZM1070.4 1033.52V1137.43L1056.78 1147.52C1049.3 1153.06 1041.08 1158.74 1038.53 1160.12C1035.98 1161.51 1032.05 1163.85 1029.8 1165.32C1027.55 1166.8 1024.97 1168 1024.06 1168C1022.93 1168 1022.4 1136.15 1022.4 1068.92V969.852L1037.88 955.724C1046.4 947.956 1056.3 938.92 1059.88 935.64C1071.1 925.376 1070.4 918.808 1070.4 1033.52ZM1014.01 1077.93L1013.6 1175.06L1004.8 1179.99C991.864 1187.23 968.16 1197.09 966.36 1195.98C963.152 1193.99 964.36 1017.93 967.6 1015.25C969.14 1013.98 979.04 1005.74 989.6 996.936C1017.43 973.744 1014.5 964.008 1014.01 1077.93ZM956.8 1114.13V1201.06L952.4 1203.12C949.98 1204.25 946.748 1205.81 945.22 1206.59C943.692 1207.36 941.344 1208 940 1208C938.656 1208 936.308 1208.63 934.78 1209.4C930.156 1211.74 920.784 1214.4 917.18 1214.4C915.316 1214.4 913.324 1215.16 912.752 1216.08C907.9 1223.93 907.2 1214.08 907.2 1137.69V1061.38L911.212 1057.89C913.42 1055.97 915.76 1054.4 916.412 1054.39C917.064 1054.39 919.9 1052.23 922.712 1049.59C925.524 1046.96 928.32 1044.8 928.92 1044.8C929.52 1044.8 932.772 1042.46 936.144 1039.6C959.024 1020.19 956.8 1012.16 956.8 1114.13ZM899.2 1144.77V1219.14L895.6 1219.96C887.148 1221.87 870.476 1224.39 861.2 1225.15L851.2 1225.97V1163.58V1101.19L859.6 1094.82C873.896 1083.98 894.696 1070.4 897.004 1070.4C898.836 1070.4 899.2 1082.77 899.2 1144.77ZM842.82 1167.66C843.316 1236.13 846.468 1229.1 815.62 1228.45L794.4 1228L793.976 1182.93L793.552 1137.86L800.376 1133.26C804.128 1130.72 808.28 1128.15 809.6 1127.54C810.92 1126.92 818.092 1122.45 825.54 1117.59C832.988 1112.74 839.828 1109.01 840.74 1109.31C841.836 1109.68 842.544 1129.54 842.82 1167.66ZM785.192 1185.62C785.408 1207.17 784.984 1225.73 784.256 1226.86C782.876 1229.02 763.832 1227.55 744.4 1223.79L736 1222.17L736.052 1197.88C736.104 1171.78 736.448 1170.54 744.8 1166.45C747.44 1165.16 752.608 1162.1 756.288 1159.65C759.968 1157.2 763.36 1155.2 763.832 1155.2C764.304 1155.2 768.124 1153.02 772.328 1150.36C785.148 1142.22 784.748 1141.13 785.192 1185.62ZM728.628 1180.13C729.164 1181.52 729.6 1190.87 729.6 1200.9C729.6 1221.38 728.176 1223.4 716.588 1219.37C713.804 1218.4 709.512 1217.6 707.056 1217.6C704.6 1217.6 702.144 1216.88 701.6 1216C701.056 1215.12 698.536 1214.4 696 1214.4C693.464 1214.4 690.944 1213.68 690.4 1212.8C689.856 1211.92 687.764 1211.2 685.752 1211.2C683.74 1211.2 680.792 1209.76 679.2 1208C677.376 1205.98 677.028 1204.8 678.264 1204.8C679.34 1204.8 683.364 1202.64 687.2 1200C691.036 1197.36 694.6 1195.2 695.12 1195.2C695.64 1195.2 699.108 1193.24 702.832 1190.85C706.556 1188.46 712.12 1185.15 715.2 1183.49C718.28 1181.83 721.484 1179.83 722.32 1179.04C724.66 1176.83 727.552 1177.33 728.628 1180.13Z" fill="#1E1E16"/>
<path fill-rule="evenodd" clip-rule="evenodd" d="M0 800V1600H800H1600V800V0H800H0V800ZM852.8 212.26C855 212.74 862.92 213.78 870.4 214.576C884.152 216.04 895.312 217.68 912.8 220.808C918.08 221.752 925.104 222.932 928.412 223.432C931.716 223.932 934.82 224.98 935.304 225.768C935.792 226.556 938.264 227.2 940.8 227.2C943.336 227.2 945.856 227.92 946.4 228.8C946.944 229.68 948.796 230.4 950.516 230.4C952.236 230.4 954.892 231.036 956.42 231.812C959.44 233.348 966.904 236.52 972 238.428C985.6 243.524 999.876 249.86 1012.8 256.54C1036 268.532 1036.68 268.908 1037.56 270.336C1038.01 271.068 1041.44 273.26 1045.17 275.204C1048.9 277.148 1054.12 280.512 1056.78 282.68C1075.93 298.324 1075.54 298.236 1084.8 288.8C1093.79 279.64 1090.6 278.092 1116.75 304.288L1139.4 326.976L1092.5 373.988C1066.7 399.844 1044.4 421.664 1042.94 422.48C1040.45 423.868 996.712 383.148 996.844 379.56C996.868 378.924 999.816 375.2 1003.4 371.292C1011.28 362.684 1012.29 363.78 984 350.224C973 344.952 962.748 339.956 961.22 339.12C959.692 338.284 957.68 337.6 956.744 337.6C955.808 337.6 952.064 336.16 948.424 334.4C944.78 332.64 940.536 331.2 938.992 331.2C937.452 331.2 935.744 330.48 935.2 329.6C934.656 328.72 932.572 328 930.572 328C928.572 328 926.44 327.508 925.836 326.904C924.08 325.148 913.124 321.652 909.296 321.624C907.368 321.612 905.392 320.956 904.904 320.168C904.42 319.38 901.316 318.392 898.012 317.968C894.704 317.544 883.36 315.732 872.8 313.94C827.78 306.3 769.02 305.152 732 311.192C723.2 312.628 712.208 314.208 707.572 314.7C702.936 315.196 698.752 316.232 698.276 317C697.8 317.772 695.284 318.4 692.684 318.4C690.084 318.4 686.708 319.048 685.18 319.836C683.652 320.624 677 322.916 670.4 324.924C663.8 326.932 657.716 329.168 656.88 329.888C656.044 330.608 654.38 331.2 653.18 331.2C651.156 331.2 642.684 334.912 620.8 345.388C615.96 347.704 607.512 352.3 602.028 355.6C596.544 358.9 591.652 361.6 591.156 361.6C579.448 361.6 504.336 427.644 481.068 458.4C475.74 465.44 470.912 471.56 470.332 472C469.108 472.932 449.6 502.328 449.6 503.244C449.6 503.58 447.74 506.588 445.472 509.928C440.276 517.568 417.724 562.916 413.808 573.6C408.496 588.096 398.876 616.668 396.836 624C395.736 627.96 394.248 632.64 393.528 634.4C392.808 636.16 391.808 639.94 391.308 642.8C390.808 645.66 389.992 650.34 389.492 653.2C388.992 656.06 387.956 659.84 387.192 661.6C386.424 663.36 385.364 667.68 384.836 671.2C377.996 716.74 377.04 728.78 377.104 768.8C377.14 791.852 378.016 814.9 379.176 823.2C380.284 831.12 381.76 842.28 382.456 848C383.152 853.72 384.56 861.64 385.592 865.6C386.62 869.56 387.84 875.504 388.3 878.812C388.76 882.116 389.78 885.22 390.568 885.704C391.356 886.192 392 888.116 392 889.98C392 891.848 392.724 895.584 393.604 898.288C394.488 900.988 397.784 911.12 400.932 920.796C413.788 960.36 434.984 1004.49 454.876 1033.11C459.452 1039.7 463.92 1046.25 464.8 1047.67C466.912 1051.08 478.596 1065.94 489.828 1079.5C499.996 1091.78 533.732 1125.07 542.66 1131.64C545.884 1134.01 549.484 1136.86 550.66 1137.98C557.94 1144.86 594.512 1169.23 609.6 1177.24C639.152 1192.94 657.628 1201.6 661.544 1201.6C662.792 1201.6 664.256 1202.32 664.8 1203.2C666.584 1206.09 670.416 1204.89 680.192 1198.4C685.492 1194.88 690.144 1192 690.528 1192C690.916 1192 694.82 1189.48 699.2 1186.4C703.58 1183.32 707.784 1180.8 708.536 1180.8C709.288 1180.8 711.208 1179.36 712.8 1177.6C714.392 1175.84 716.552 1174.4 717.6 1174.4C718.648 1174.4 720.808 1172.96 722.4 1171.2C723.992 1169.44 726.152 1168 727.2 1168C728.248 1168 730.408 1166.56 732 1164.8C733.592 1163.04 735.864 1161.6 737.048 1161.6C738.232 1161.6 739.2 1161 739.2 1160.26C739.2 1159.52 740.94 1158.12 743.064 1157.15C746.192 1155.73 761.288 1145.41 768.8 1139.56C769.68 1138.87 772.92 1136.57 776 1134.43C779.08 1132.3 781.96 1130.16 782.4 1129.68C782.84 1129.2 784.388 1128.08 785.836 1127.2C787.284 1126.32 794.38 1121.28 801.6 1116C808.82 1110.72 815.912 1105.68 817.36 1104.8C818.804 1103.92 822.292 1101.4 825.112 1099.2C827.928 1097 833.188 1093.04 836.8 1090.4C840.412 1087.76 845.764 1083.62 848.696 1081.2C851.624 1078.78 854.56 1076.8 855.216 1076.8C855.876 1076.8 859.088 1074.46 862.356 1071.6C869.924 1064.98 873.072 1062.48 880 1057.63C883.08 1055.47 886.564 1052.77 887.74 1051.63C888.916 1050.49 892.516 1047.6 895.74 1045.21C901.092 1041.25 918.092 1027.51 920 1025.6C920.44 1025.16 925.12 1021.22 930.4 1016.84C935.68 1012.46 940.36 1008.5 940.8 1008.04C941.804 1006.99 959.496 992.016 964.62 987.884C995.096 963.284 1082.52 878.256 1092.68 863.344C1093.93 861.504 1097.92 856.76 1101.56 852.8C1105.18 848.84 1113.52 838.4 1120.08 829.6C1126.64 820.8 1132.54 813.36 1133.2 813.068C1133.86 812.772 1134.4 811.624 1134.4 810.516C1134.4 809.404 1135.84 807.192 1137.6 805.6C1139.36 804.008 1140.8 802.088 1140.8 801.336C1140.8 800.584 1143.18 796.556 1146.09 792.384C1149 788.212 1154.8 778.5 1158.97 770.8C1165.74 758.328 1167.06 756.8 1171.06 756.8C1179.57 756.8 1197.15 741.632 1207.65 725.22C1213.52 716.056 1215.14 715.852 1219.76 723.688C1228.22 738.016 1246.76 754.696 1256.44 756.676L1261.6 757.732L1262.4 1004.06L1263.2 1250.4L1273.23 1250.88L1283.26 1251.36L1282.83 1284.48L1282.4 1317.6H1213.6H1144.8L1144.37 1284.47L1143.94 1251.34L1155.57 1250.87L1167.2 1250.4L1167.62 1206C1168.13 1152.9 1169.69 1154.88 1145.82 1178.29C1136.46 1187.47 1126.64 1196.62 1124 1198.63C1121.36 1200.64 1118.12 1203.44 1116.8 1204.85C1105.49 1216.93 1056.61 1251.26 1032.27 1264.22C1027.58 1266.72 1021.82 1270.08 1019.47 1271.7C1013.46 1275.83 975.628 1292.8 972.432 1292.8C970.98 1292.8 969.428 1293.38 968.988 1294.1C968.548 1294.81 960.764 1297.78 951.692 1300.69C942.62 1303.6 933.76 1306.54 932 1307.21C927.68 1308.86 907.504 1314.16 898.4 1316.04C833.712 1329.32 756.66 1329 693.6 1315.18C689.2 1314.21 683.252 1313.02 680.384 1312.54C677.516 1312.05 674.776 1311 674.292 1310.22C673.808 1309.44 671.076 1308.8 668.224 1308.8C665.372 1308.8 662.356 1308.2 661.52 1307.48C660.684 1306.75 656.76 1305.24 652.8 1304.12C648.84 1303 644.348 1301.44 642.82 1300.64C641.292 1299.85 638.944 1299.2 637.604 1299.2C636.264 1299.2 632.112 1297.82 628.384 1296.13C624.652 1294.44 619.8 1292.54 617.6 1291.9C612.336 1290.36 581.96 1275.56 564.8 1266.16C557.32 1262.06 549.04 1257.54 546.4 1256.1C539.776 1252.49 532.412 1247.64 529.884 1245.22C528.724 1244.11 527.156 1243.2 526.4 1243.2C525.644 1243.2 524.076 1242.3 522.916 1241.19C521.752 1240.08 515.4 1235.61 508.8 1231.25C502.2 1226.9 494.168 1221.14 490.948 1218.46C487.728 1215.79 480.2 1209.64 474.216 1204.8C460.584 1193.77 411.488 1144.62 400.8 1131.29C396.4 1125.8 390.28 1118.32 387.2 1114.66C384.12 1111 380.88 1106.84 380 1105.42C376 1098.97 357.756 1072.72 356.776 1072C356.172 1071.56 353.296 1066.88 350.388 1061.6C347.476 1056.32 343.408 1049.32 341.348 1046.03C339.288 1042.75 337.6 1039.67 337.6 1039.2C337.6 1038.72 335.832 1035.65 333.676 1032.36C330.616 1027.72 313.592 991.28 302.484 965.6C298.616 956.664 293.876 943.22 291.2 933.6C290.464 930.96 287.64 921.24 284.924 912C265.024 844.34 259.976 766.456 270.3 686.4C273.18 664.096 280.888 627.052 286.452 608.8C288.328 602.64 290.464 595.44 291.2 592.8C293.96 582.872 301.332 562.288 305.524 552.8C326.12 506.184 328.392 501.532 342.156 477.772C346.692 469.944 350.4 463.32 350.4 463.048C350.4 462.144 376.98 423.24 382.876 415.516C398.94 394.472 446.556 344.348 461.6 332.644C466 329.22 473.2 323.52 477.6 319.976C511.632 292.58 576.38 255.752 614.084 242.348C619.632 240.376 624.612 238.32 625.152 237.78C625.692 237.24 627.772 236.8 629.772 236.8C631.772 236.8 633.856 236.08 634.4 235.2C634.944 234.32 637.104 233.6 639.2 233.6C641.296 233.6 643.404 232.964 643.884 232.184C644.368 231.404 646.748 230.372 649.18 229.884C651.612 229.396 656.48 228.264 660 227.372C700.364 217.12 724.964 213.204 760.8 211.316C783.936 210.096 845.736 210.732 852.8 212.26ZM1161.6 828.388C1161.6 829.168 1155.85 836.6 1148.83 844.904L1136.06 860L1136.03 967.6C1136 1091.98 1134.12 1082.54 1154.34 1059.84L1168.02 1044.47L1167.61 936.256C1167.22 834.656 1167.03 828.012 1164.4 827.504C1162.86 827.208 1161.6 827.604 1161.6 828.388ZM1100.4 895.996L1078.4 918.22V1023.11C1078.4 1117.38 1078.66 1128 1080.91 1128C1083.83 1128 1095.78 1118.13 1114.69 1100.12L1128 1087.43V980.516C1128 879.724 1127.84 873.604 1125.2 873.688C1123.66 873.736 1112.5 883.776 1100.4 895.996ZM1059.88 935.64C1056.3 938.92 1046.4 947.956 1037.88 955.724L1022.4 969.852V1068.92C1022.4 1136.15 1022.93 1168 1024.06 1168C1024.97 1168 1027.55 1166.8 1029.8 1165.32C1032.05 1163.85 1035.98 1161.51 1038.53 1160.12C1041.08 1158.74 1049.3 1153.06 1056.78 1147.52L1070.4 1137.43V1033.52C1070.4 918.808 1071.1 925.376 1059.88 935.64ZM989.6 996.936C979.04 1005.74 969.14 1013.98 967.6 1015.25C964.36 1017.93 963.152 1193.99 966.36 1195.98C968.16 1197.09 991.864 1187.23 1004.8 1179.99L1013.6 1175.06L1014.01 1077.93C1014.5 964.008 1017.43 973.744 989.6 996.936ZM946.736 1030.86C944.28 1032.8 939.512 1036.74 936.144 1039.6C932.772 1042.46 929.52 1044.8 928.92 1044.8C928.32 1044.8 925.524 1046.96 922.712 1049.59C919.9 1052.23 917.064 1054.39 916.412 1054.39C915.76 1054.4 913.42 1055.97 911.212 1057.89L907.2 1061.38V1137.69C907.2 1214.08 907.9 1223.93 912.752 1216.08C913.324 1215.16 915.316 1214.4 917.18 1214.4C920.784 1214.4 930.156 1211.74 934.78 1209.4C936.308 1208.63 938.656 1208 940 1208C941.344 1208 943.692 1207.36 945.22 1206.59C946.748 1205.81 949.98 1204.25 952.4 1203.12L956.8 1201.06V1114.13C956.8 1017.74 957.368 1022.42 946.736 1030.86ZM881.404 1079.42C874.032 1084.39 864.22 1091.32 859.6 1094.82L851.2 1101.19V1163.58V1225.97L861.2 1225.15C870.476 1224.39 887.148 1221.87 895.6 1219.96L899.2 1219.14V1144.77C899.2 1082.77 898.836 1070.4 897.004 1070.4C895.792 1070.4 888.772 1074.46 881.404 1079.42ZM825.54 1117.59C818.092 1122.45 810.92 1126.92 809.6 1127.54C808.28 1128.15 804.128 1130.72 800.376 1133.26L793.552 1137.86L793.976 1182.93L794.4 1228L815.62 1228.45C846.468 1229.1 843.316 1236.13 842.82 1167.66C842.544 1129.54 841.836 1109.68 840.74 1109.31C839.828 1109.01 832.988 1112.74 825.54 1117.59ZM772.328 1150.36C768.124 1153.02 764.304 1155.2 763.832 1155.2C763.36 1155.2 759.968 1157.2 756.288 1159.65C752.608 1162.1 747.44 1165.16 744.8 1166.45C736.448 1170.54 736.104 1171.78 736.052 1197.88L736 1222.17L744.4 1223.79C763.832 1227.55 782.876 1229.02 784.256 1226.86C784.984 1225.73 785.408 1207.17 785.192 1185.62C784.748 1141.13 785.148 1142.22 772.328 1150.36ZM722.32 1179.04C721.484 1179.83 718.28 1181.83 715.2 1183.49C712.12 1185.15 706.556 1188.46 702.832 1190.85C699.108 1193.24 695.64 1195.2 695.12 1195.2C694.6 1195.2 691.036 1197.36 687.2 1200C683.364 1202.64 679.34 1204.8 678.264 1204.8C677.028 1204.8 677.376 1205.98 679.2 1208C680.792 1209.76 683.74 1211.2 685.752 1211.2C687.764 1211.2 689.856 1211.92 690.4 1212.8C690.944 1213.68 693.464 1214.4 696 1214.4C698.536 1214.4 701.056 1215.12 701.6 1216C702.144 1216.88 704.6 1217.6 707.056 1217.6C709.512 1217.6 713.804 1218.4 716.588 1219.37C728.176 1223.4 729.6 1221.38 729.6 1200.9C729.6 1178.57 727.976 1173.69 722.32 1179.04Z" fill="#D3D3D3"/>
</svg>
