<svg width="1600" height="1600" viewBox="0 0 1600 1600" fill="none" xmlns="http://www.w3.org/2000/svg">
<path fill-rule="evenodd" clip-rule="evenodd" d="M1274.24 373.955C1255.57 382.392 1254.26 408.567 1272.01 418.493C1287.59 427.205 1307.19 418.517 1309.71 401.778C1312.97 380.167 1293.79 365.123 1274.24 373.955ZM1379.55 435.089C1355.91 450.793 1367.03 487.133 1395.48 487.133C1423.93 487.133 1433.68 450.666 1409.64 434.138C1403.63 429.999 1386.38 430.548 1379.55 435.089ZM1407.48 438.906C1417.82 445.651 1421.73 462.001 1415.3 471.672C1412.02 476.607 1410.74 475.95 1404.36 466.064C1401.66 461.861 1401.67 461.591 1404.78 458.502C1412.81 450.507 1407.56 442.277 1394.81 442.882L1384.8 443.355V459.275C1384.8 472.364 1385.23 475.194 1387.2 475.194C1388.74 475.194 1389.78 473.335 1390.1 470.02C1390.76 463.199 1394.2 463.35 1398.78 470.398C1400.77 473.451 1403.66 475.958 1405.2 475.97C1412.33 476.022 1404.3 482.346 1396.14 483.102C1383.48 484.272 1369.98 469.272 1371.97 456.238C1374.66 438.579 1393.14 429.561 1407.48 438.906ZM1401.11 449.954C1402.26 452.935 1397.81 456.887 1393.3 456.887C1391.14 456.887 1390.4 455.657 1390.4 452.111C1390.4 446.567 1399.12 444.808 1401.11 449.954ZM412.988 450.825C390.9 455.728 379.6 488.148 393.04 508.056C414.38 539.671 462.872 525.141 462.872 487.133C462.872 460.377 441.152 444.573 412.988 450.825ZM532 456.421C495.072 469.017 492.484 522.53 527.992 539.297C573.688 560.88 614.252 505.381 580.628 467.282C570.548 455.86 548.248 450.881 532 456.421ZM1284.48 482.847C1253.68 497.059 1263.77 542.242 1297.69 541.968C1338.22 541.637 1339.11 482.994 1298.61 481.271C1293.19 481.04 1286.87 481.745 1284.48 482.847ZM296.448 486.632C288.088 487.762 276.96 498.981 274.392 508.867C264.908 545.379 315.088 563.917 332.112 530.191C344.02 506.603 324.56 482.835 296.448 486.632ZM786.736 497.728C762.136 506.217 749.48 536.185 760.624 559.567C781.196 602.732 846.3 588.644 846.744 540.929C847.04 509.409 816.532 487.444 786.736 497.728ZM653.948 519.02C627.472 525.658 610.404 555.44 618.284 581.261C635.264 636.931 717.392 626.221 717.496 568.322C717.556 534.382 687.052 510.714 653.948 519.02ZM914.4 545.828C899.28 552.701 891.868 566.11 893.172 584.234C896.604 631.984 968.456 628.219 968.456 580.29C968.456 553.211 939.2 534.561 914.4 545.828ZM1383.2 560.796C1365.81 570.475 1366.23 595.139 1383.94 604.455C1398.94 612.347 1415.73 605.216 1420.66 588.858C1427.05 567.626 1403.12 549.701 1383.2 560.796ZM196.912 561.457C174.784 573.098 182.72 608.121 207.488 608.121C221.612 608.121 229.536 602.859 233.524 590.84C240.364 570.217 216.568 551.121 196.912 561.457ZM436.22 564.255C391.952 585.83 406.716 649.416 456 649.452C495.936 649.475 515.624 603.333 488.568 573.118C477.296 560.534 452.476 556.331 436.22 564.255ZM1246.37 595.306C1214.58 612.033 1219.97 657.057 1254.88 666.394C1295.74 677.326 1319.61 621.079 1284.17 597.375C1274.66 591.008 1256.43 590.009 1246.37 595.306ZM327.44 599.091C310.436 603.811 298.364 624.995 302.404 643.02C312.472 687.933 377.6 681.139 377.6 635.172C377.6 608.961 353.728 591.792 327.44 599.091ZM554.348 619.607C531.248 625.175 514.532 649.957 517.416 674.377C524.112 731.054 605.28 734.358 617.08 678.429C624.776 641.954 591.424 610.68 554.348 619.607ZM1016.28 628.665C985.084 639.383 976.928 681.318 1001.58 704.254C1030.38 731.058 1077.5 710.367 1077.32 671.002C1077.16 638.893 1047.13 618.063 1016.28 628.665ZM1352.65 667.85C1341.2 672.849 1333.05 688.223 1335.1 700.951C1341.08 738.162 1396.32 734.21 1397.06 696.521C1397.49 674.489 1373.27 658.848 1352.65 667.85ZM227.744 675.675C204.524 682.898 197.024 708.513 212.884 726.434C235.32 751.797 276.272 727.301 265.048 695.236C261.324 684.602 243.64 671.826 234.952 673.498C234.648 673.554 231.404 674.537 227.744 675.675ZM1176.02 687.606C1141.09 701.695 1139.86 753.708 1174.07 769.874C1218.55 790.887 1260.8 736.2 1228.38 699.566C1215.84 685.382 1193.94 680.379 1176.02 687.606ZM392.164 695.51C357.076 709.675 355.588 760.863 389.784 777.551C435.18 799.699 476.664 744.188 443.12 706.176C431.816 693.365 409.204 688.633 392.164 695.51ZM1058.4 752.335C1040.2 758.897 1029.61 769.05 1024.14 785.152C1009.78 827.454 1054.26 865.896 1094.89 846.303C1125.33 831.621 1132.18 788.281 1107.7 765.202C1093.5 751.813 1073.98 746.719 1058.4 752.335ZM522.148 754.647C499.52 759.1 483.104 778.355 481.86 801.904C479.496 846.697 533.816 872.307 566.176 841.654C603.584 806.218 572.476 744.737 522.148 754.647ZM1281.65 759.976C1268.39 764.195 1256 782.247 1256 797.343C1256 831.764 1302.98 847.553 1324.36 820.314C1348.12 790.044 1318.53 748.239 1281.65 759.976ZM296.2 773.213C271.424 781.925 263.816 814.576 281.816 834.972C296.092 851.15 322.472 851.055 337.792 834.765C365.204 805.625 334.26 759.829 296.2 773.213ZM1423.08 779.883C1402.3 789.272 1406.57 823.156 1429.01 827.024C1458.58 832.119 1472.8 792.117 1445.76 779.899C1437.47 776.158 1431.34 776.15 1423.08 779.883ZM157.6 780.377C132.14 794.883 145.188 831.271 174.444 827.367C197.108 824.342 202.776 791.329 182.432 780.862C176.956 778.044 162.2 777.758 157.6 780.377ZM1176.92 826.165C1136.01 842.478 1141.41 903.219 1184.56 912.13C1227.44 920.989 1256.7 871.989 1228.54 838.494C1216.83 824.569 1194.36 819.204 1176.92 826.165ZM403.852 831.183C348.072 840.974 353.928 920.973 410.4 920.706C465.692 920.443 471.904 841.141 417.404 831.299C413.552 830.602 407.452 830.551 403.852 831.183ZM1353.89 871.877C1329.97 883.602 1332.73 919.886 1358.22 928.833C1389.26 939.73 1413.56 900.942 1390.63 877.111C1383.02 869.211 1364.66 866.592 1353.89 871.877ZM221.448 882.933C194.836 900.906 206.78 939.244 238.996 939.244C262.076 939.244 276.088 915.433 265.644 893.966C258.436 879.153 235.524 873.434 221.448 882.933ZM1018.08 889.425C997.052 896.664 982.344 923.389 987.044 945.827C999.876 1007.08 1088.19 997.458 1086.94 934.938C1086.24 900.568 1051.82 877.811 1018.08 889.425ZM553.6 893.197C508.532 913.439 522.068 979.879 571.2 979.596C621.444 979.309 634.36 910.605 587.568 892.533C578.056 888.859 562.584 889.162 553.6 893.197ZM1251.71 933.426C1225.53 943.348 1218.26 975.493 1237.49 996.295C1260.14 1020.8 1302.31 1004.01 1302.81 970.287C1303.18 944.776 1275.14 924.543 1251.71 933.426ZM319.44 944.191C292.596 961.886 299.296 1004.35 330.24 1012.65C365.288 1022.05 392.648 982.692 371.456 953.361C360.564 938.285 335.192 933.812 319.44 944.191ZM1134.4 957.134C1101.87 971.39 1092.64 1005.56 1114.71 1030C1144.36 1062.8 1196.42 1040.75 1193.24 996.737C1191.16 967.939 1159.06 946.328 1134.4 957.134ZM659.728 989.605C633.752 998.763 626.548 1035.61 647.2 1053.65C669.468 1073.1 703.976 1062.27 710.46 1033.78C717.096 1004.63 688.276 979.54 659.728 989.605ZM923.2 988.491C885.356 999.985 873.904 1046.01 902.024 1073.6C935.272 1106.21 989.888 1080.69 986.824 1033.96C984.748 1002.32 952.812 979.496 923.2 988.491ZM1382.28 1000.18C1367.54 1010.06 1365.32 1025.92 1376.8 1039.28C1391.34 1056.18 1420.8 1044.38 1420.8 1021.66C1420.8 1002.74 1397.68 989.848 1382.28 1000.18ZM196 1000.59C185.06 1005.99 179.368 1022.7 184.86 1033.3C200.572 1063.66 244.576 1043.29 231.348 1011.79C226.432 1000.08 208.524 994.405 196 1000.59ZM786.312 1022.61C743.708 1038.3 748.116 1100.35 792.484 1109.52C848.004 1120.98 869.428 1041.7 816 1022.49C809.244 1020.07 793.056 1020.13 786.312 1022.61ZM1289.05 1059.37C1268.08 1066.81 1262.03 1094.35 1277.88 1110.27C1290.36 1122.79 1310.58 1122.22 1322.84 1108.99C1344.73 1085.36 1319.64 1048.52 1289.05 1059.37ZM1045.6 1062.16C999.948 1077.31 999.408 1136.94 1044.8 1150.3C1078.08 1160.09 1110.16 1127.03 1099.94 1093.46C1092.97 1070.58 1066.39 1055.26 1045.6 1062.16ZM293.6 1065.27C263.38 1081.86 273.3 1124.4 307.396 1124.43C337.476 1124.46 348.992 1085.81 324.224 1067.96C317.348 1063.01 300.432 1061.52 293.6 1065.27ZM1166.67 1081.81C1133.99 1093.64 1132.41 1140.12 1164.23 1153.36C1193.65 1165.59 1222.69 1140.84 1216.08 1109.16C1211.66 1088 1187.11 1074.4 1166.67 1081.81ZM307.368 1186.3C298.588 1190.99 294.4 1198.34 294.4 1209.08C294.4 1233.01 325.448 1242.91 339.876 1223.58C355.796 1202.25 330.92 1173.73 307.368 1186.3Z" fill="#F4F5F7"/>
<path fill-rule="evenodd" clip-rule="evenodd" d="M772 624.124C661.74 643.756 594.972 752.971 628.896 858.207C660.64 956.664 768.212 1008.09 867.016 972.038C936.12 946.826 984.112 877.007 983.968 801.912C983.752 690.655 881.244 604.678 772 624.124Z" fill="#FAB315"/>
<path fill-rule="evenodd" clip-rule="evenodd" d="M0 799.95V1599.9H800H1600V799.95V0H800H0V799.95ZM1292.96 372.729C1305.24 376.816 1311.77 388.131 1309.71 401.778C1306.28 424.542 1274 429.326 1262.4 408.786C1251.26 389.066 1271.23 365.505 1292.96 372.729ZM1409.64 434.138C1433.68 450.666 1423.93 487.133 1395.48 487.133C1367.03 487.133 1355.91 450.793 1379.55 435.089C1386.38 430.548 1403.63 429.999 1409.64 434.138ZM1389.6 435.957C1363.14 445.377 1368.73 485.637 1396.14 483.102C1404.3 482.346 1412.33 476.022 1405.2 475.97C1403.66 475.958 1400.77 473.451 1398.78 470.398C1394.2 463.35 1390.76 463.199 1390.1 470.02C1389.78 473.335 1388.74 475.194 1387.2 475.194C1385.23 475.194 1384.8 472.364 1384.8 459.275V443.355L1394.81 442.882C1407.56 442.277 1412.81 450.507 1404.78 458.502C1401.32 461.941 1402.41 465.181 1409.76 473.264C1416.94 481.152 1421.53 455.709 1414.66 446.113C1408.61 437.656 1397.49 433.151 1389.6 435.957ZM1390.4 452.111C1390.4 457.46 1393.94 458.518 1399.16 454.73C1403.46 451.593 1401.22 447.335 1395.25 447.335C1390.93 447.335 1390.4 447.856 1390.4 452.111ZM436 450.71C466.884 459.239 473.124 502.46 445.876 519.143C421.092 534.315 389.864 519.434 387.628 491.38C385.324 462.53 408.432 443.1 436 450.71ZM568.236 458.375C583.66 465.205 592.692 480.288 592.612 499.073C592.396 547.898 526.332 561.6 506.488 516.939C489.428 478.541 529.012 440.999 568.236 458.375ZM1314.98 486.003C1340.41 502.75 1328.37 541.721 1297.69 541.968C1263.77 542.242 1253.68 497.059 1284.48 482.847C1291.88 479.428 1307.44 481.04 1314.98 486.003ZM322.256 491.595C342.056 505.178 339.076 535.604 317.004 545.267C293.004 555.77 267.8 534.243 274.392 508.867C279.696 488.447 304.58 479.468 322.256 491.595ZM824.944 501.692C864.512 525.551 847.852 585.038 801.6 585.038C775.26 585.038 756.852 566.683 756.816 540.38C756.768 505.393 795.04 483.659 824.944 501.692ZM690.208 522.928C721.636 538.227 727.752 580.783 701.928 604.467C681.632 623.081 648.78 622.241 630.848 602.657C592.276 560.53 638.88 497.943 690.208 522.928ZM945.252 545.319C958.82 550.95 968.456 565.473 968.456 580.29C968.456 628.219 896.604 631.984 893.172 584.234C891.036 554.536 918.324 534.147 945.252 545.319ZM1407.96 560.343C1422.91 567.932 1426.25 587.06 1414.77 599.381C1394.76 620.852 1360.32 597.73 1373.26 571.514C1379.66 558.564 1394.83 553.677 1407.96 560.343ZM227.556 566.758C243.58 584.652 232.192 608.121 207.488 608.121C182.72 608.121 174.784 573.098 196.912 561.457C206.824 556.244 220.212 558.56 227.556 566.758ZM475.82 564.327C490.092 571.045 498.884 583.812 500.356 599.95C505.4 655.314 428.464 670 411.664 616.877C400.284 580.891 440.692 547.794 475.82 564.327ZM1284.17 597.375C1319.61 621.079 1295.74 677.326 1254.88 666.394C1210.2 654.442 1218 592.54 1264.22 592.273C1275.41 592.205 1277.09 592.635 1284.17 597.375ZM354.064 600.018C368.86 606.33 377.6 619.38 377.6 635.172C377.6 681.139 312.472 687.933 302.404 643.02C295.856 613.808 326.532 588.273 354.064 600.018ZM580 619.83C606.952 626.977 622.688 651.844 617.08 678.429C605.28 734.358 524.112 731.054 517.416 674.377C513.252 639.124 545.792 610.764 580 619.83ZM827.6 623.384C987.272 650.642 1040.22 844.906 915.128 944.494C797.22 1038.35 620.908 953.87 620.12 803.133C619.548 693.899 721.796 605.319 827.6 623.384ZM1045.5 628.06C1086.44 639.904 1088.59 698.241 1048.62 713.117C1001.99 730.477 965.48 672.292 1001.34 637.767C1012.61 626.922 1029.06 623.304 1045.5 628.06ZM1377.82 667.679C1389.61 672.578 1397.3 684.116 1397.06 696.521C1396.55 722.048 1366.78 736.391 1346.75 720.751C1318.56 698.738 1344.78 653.945 1377.82 667.679ZM243.868 675.81C277.72 685.601 271.616 737.068 236.604 737.068C195.308 737.068 193.864 681.398 234.952 673.498C235.26 673.438 239.272 674.477 243.868 675.81ZM1214.07 688.649C1267.46 715.123 1227.97 795.341 1174.07 769.874C1139.86 753.708 1141.09 701.695 1176.02 687.606C1187.23 683.085 1203.77 683.539 1214.07 688.649ZM430.016 696.581C472.772 717.782 458.104 781.797 410.424 782.076C369.192 782.323 349.048 732.981 378.744 704.481C391.776 691.972 413.856 688.57 430.016 696.581ZM1085.63 752.446C1110.11 760.748 1122.4 777.237 1122.21 801.541C1121.76 859.456 1039.54 870.512 1023.41 814.826C1012.5 777.165 1049.4 740.164 1085.63 752.446ZM544.464 755.355C601.316 770.089 591.184 854.871 532.568 854.871C472.064 854.871 462.86 766.316 522.148 754.647C532.076 752.693 534.48 752.768 544.464 755.355ZM1305.6 759.825C1322.97 766.069 1332.8 779.095 1332.8 795.862C1332.8 838.518 1275.16 849.268 1258.58 809.704C1246.88 781.782 1277.2 749.616 1305.6 759.825ZM322.408 773.133C342.132 779.823 352.74 801.056 346.192 820.76C337.116 848.086 300.516 856.165 281.816 834.972C255.336 804.964 284.636 760.33 322.408 773.133ZM1445.76 779.899C1461.02 786.796 1464.86 807.846 1453.02 819.63C1436.44 836.122 1409.6 825.524 1409.6 802.485C1409.6 783.015 1427.67 771.728 1445.76 779.899ZM182.432 780.862C202.776 791.329 197.108 824.342 174.444 827.367C145.188 831.271 132.14 794.883 157.6 780.377C162.2 777.758 176.956 778.044 182.432 780.862ZM1215.05 827.852C1261.86 851.317 1236.01 922.76 1184.56 912.13C1130.67 901.002 1140.96 821.254 1196 823.466C1204.06 823.793 1209.4 825.023 1215.05 827.852ZM431.552 836.114C451.904 846.227 461.324 874.082 451.48 895.044C431.104 938.448 364.8 924.161 364.8 876.363C364.8 841.889 400.212 820.541 431.552 836.114ZM1382.88 871.79C1405.58 883.276 1404.99 916.71 1381.9 927.408C1351.15 941.652 1323.82 906.765 1344.55 879.73C1352.3 869.625 1370.96 865.76 1382.88 871.79ZM255.724 883.116C264.34 888.672 268.8 897.547 268.8 909.129C268.8 945.278 217.88 951.279 208.036 916.285C200.6 889.862 232.16 867.909 255.724 883.116ZM1058.04 891.231C1106.92 913.403 1090.98 986.847 1037.26 986.979C989.692 987.094 968.188 929.553 1004.06 898.136C1018.11 885.831 1039.96 883.033 1058.04 891.231ZM587.568 892.533C634.36 910.605 621.444 979.309 571.2 979.596C522.068 979.879 508.532 913.439 553.6 893.197C562.584 889.162 578.056 888.859 587.568 892.533ZM1281.97 935.853C1317.81 953.114 1304.12 1007.7 1263.95 1007.7C1229.11 1007.7 1212.97 962.26 1240.1 940.566C1252.59 930.58 1267.53 928.897 1281.97 935.853ZM360.352 943.379C398.052 966.037 372.828 1024.07 330.24 1012.65C299.296 1004.35 292.596 961.886 319.44 944.191C329.904 937.294 349.576 936.904 360.352 943.379ZM1166.94 959.092C1211.88 980.241 1197.56 1045.1 1148 1044.91C1103.63 1044.75 1085.7 986.346 1122.98 963.446C1138.91 953.655 1152.53 952.306 1166.94 959.092ZM685.66 989.657C717.396 1000.41 720.324 1045.28 690.216 1059.46C663.808 1071.88 635.128 1054.27 635.236 1025.69C635.34 998.628 660.04 980.973 685.66 989.657ZM953.628 989.701C983.732 999.376 996.944 1038.65 979.104 1065.45C961.552 1091.82 924.58 1095.72 902.024 1073.6C863.288 1035.6 901.772 973.037 953.628 989.701ZM1407.4 999.833C1426.02 1008.8 1424.52 1037.11 1405 1045.25C1382.66 1054.56 1359.96 1028.77 1373.24 1009.17C1381.56 996.876 1394.13 993.442 1407.4 999.833ZM222.976 1002.29C236.828 1011.65 237.244 1033.12 223.768 1043.09C200.488 1060.33 171.068 1032.34 187.404 1008.49C194.976 997.442 211.54 994.552 222.976 1002.29ZM816 1022.49C869.428 1041.7 848.004 1120.98 792.484 1109.52C740.028 1098.68 747.24 1021.57 800.8 1020.65C806.08 1020.56 812.92 1021.39 816 1022.49ZM1309.22 1058.73C1330.28 1064.55 1337.91 1092.72 1322.84 1108.99C1303.44 1129.93 1268.68 1116.6 1268.84 1088.29C1268.95 1067.32 1288.5 1053 1309.22 1058.73ZM1066.4 1062.39C1096.14 1070.27 1109.88 1098.47 1097.26 1125.67C1081.75 1159.08 1034.72 1160.77 1016.8 1128.56C997.856 1094.5 1029.3 1052.55 1066.4 1062.39ZM324.224 1067.96C348.992 1085.81 337.476 1124.46 307.396 1124.43C273.3 1124.4 263.38 1081.86 293.6 1065.27C300.432 1061.52 317.348 1063.01 324.224 1067.96ZM1197.56 1084.8C1239 1108.96 1208.48 1171.75 1164.23 1153.36C1132.41 1140.12 1133.99 1093.64 1166.67 1081.81C1176.12 1078.38 1188.64 1079.6 1197.56 1084.8ZM336.984 1191.42C346.708 1201.97 347.708 1213.09 339.876 1223.58C325.448 1242.91 294.4 1233.01 294.4 1209.08C294.4 1185.06 320.976 1174.04 336.984 1191.42Z" fill="#044C74"/>
</svg>
