<svg width="1600" height="1600" viewBox="0 0 1600 1600" fill="none" xmlns="http://www.w3.org/2000/svg">
<path fill-rule="evenodd" clip-rule="evenodd" d="M256.115 703.284C214.375 712.336 188.803 743.636 188.859 785.6C188.915 829.348 206.839 849.528 259.199 864.784C318.511 882.068 319.223 882.496 318.095 900.228C315.575 939.78 255.999 927.204 255.999 887.12V883.2H221.655C180.647 883.2 182.695 882.064 185.511 903.216C192.371 954.768 225.571 979.804 287.199 979.896C353.967 979.996 391.907 948.632 391.979 893.28C392.043 845.056 375.715 828.472 308.799 808.78C265.403 796.012 262.399 794.048 262.399 778.4C262.399 764.192 271.059 756.8 287.703 756.8C302.071 756.8 311.871 767.168 311.963 782.48C312.023 791.84 312.627 792 347.999 792C384.847 792 383.999 792.312 383.999 778.796C383.999 721.368 327.251 687.86 256.115 703.284ZM499.639 707.6C498.235 709.416 486.367 743.4 455.923 832.8C449.927 850.4 437.067 888.096 427.347 916.568C409.547 968.692 408.347 974.252 414.855 974.464C423.435 974.74 479.159 974.172 479.527 973.808C479.783 973.548 483.395 962.056 487.551 948.268L495.103 923.2H536.815H578.523L583.647 940.4C586.463 949.86 589.887 961.392 591.255 966.028L593.739 974.456L631.495 974.028C663.747 973.664 669.483 973.232 670.835 971.088C672.007 969.228 666.719 952.036 650.419 904.688C618.279 811.36 595.363 744.54 591.743 733.6C589.999 728.32 587.083 719.86 585.271 714.8L581.971 705.6H541.579C511.163 705.6 500.807 706.092 499.639 707.6ZM706.647 708.524C703.215 712.32 702.507 969.068 705.919 972.48C707.267 973.828 716.231 974.4 735.999 974.4C755.767 974.4 764.731 973.828 766.079 972.48C767.523 971.036 768.015 948.952 768.067 883.28L768.135 796L776.919 818.4C781.751 830.72 788.491 848 791.895 856.8C809.571 902.48 814.999 916.556 823.971 940C829.359 954.08 834.535 967.58 835.475 970L837.187 974.4H881.475C913.783 974.4 926.279 973.88 927.679 972.48C931.331 968.828 930.355 711.58 926.675 708.248C922.067 704.08 872.055 704.32 868.247 708.524C865.859 711.168 865.591 719.468 865.535 793.724L865.475 876L857.587 856.8C853.247 846.24 842.071 818.16 832.755 794.4C823.435 770.64 811.711 740.94 806.703 728.4L797.599 705.604L753.447 705.6C712.703 705.6 709.091 705.824 706.647 708.524ZM964.799 708.8C961.879 711.72 961.599 714.132 961.599 736.552C961.599 768.704 958.487 766.208 999.287 766.764L1031.2 767.2L1031.61 869.012C1031.96 955.372 1032.37 971.12 1034.33 972.74C1037.37 975.268 1098.85 975.084 1101.91 972.544C1103.59 971.148 1104 950.736 1104 868.552V766.292L1136.89 766.464C1160.31 766.588 1170.45 766.088 1172.09 764.724C1175.96 761.516 1175.42 711.816 1171.48 708.248C1166.47 703.724 969.351 704.248 964.799 708.8ZM1239.5 712.4C1237.14 718.748 1223.55 758.304 1216.28 780C1212.47 791.372 1179.6 887.352 1163.03 935.46C1153.14 964.18 1151.69 969.704 1153.48 971.86C1156.84 975.9 1221.8 975.66 1223.03 971.6C1225.84 962.296 1236.8 924.224 1236.8 923.76C1236.8 923.452 1255.71 923.2 1278.82 923.2H1320.83L1327.1 945.2C1330.56 957.3 1334.08 968.82 1334.94 970.8C1337.2 975.976 1409.95 976.532 1412.7 971.392C1414.45 968.116 1415.7 972.068 1380.85 870.4C1370.14 839.16 1360.06 809.64 1358.45 804.8C1356.84 799.96 1348.61 775.928 1340.16 751.396C1331.71 726.86 1324.8 706.52 1324.8 706.196C1324.8 705.868 1306.18 705.6 1283.42 705.6H1242.04L1239.5 712.4ZM556.531 847.6L561.375 865.6H536.763H512.151L514.495 858C515.783 853.82 521.235 834.92 526.611 816C531.987 797.08 536.771 780.948 537.239 780.156C537.707 779.36 541.151 790.16 544.891 804.156C548.627 818.148 553.867 837.7 556.531 847.6ZM1287.08 804.4C1290.54 817.38 1295.64 836.46 1298.41 846.8L1303.46 865.6H1279.01H1254.55L1256.85 858C1258.11 853.82 1263.58 834.74 1269.01 815.6C1274.44 796.46 1279.32 780.8 1279.84 780.8C1280.37 780.8 1283.63 791.42 1287.08 804.4ZM393.187 1048.14C331.815 1054.63 292.799 1108.98 292.799 1188C292.799 1282.07 345.063 1334.21 429.971 1324.85C484.355 1318.86 518.171 1286.06 518.371 1239.12C518.415 1228.8 518.411 1228.8 479.887 1228.8H445.215L443.359 1238.24C436.711 1272.04 395.171 1276.58 378.083 1245.37C359.607 1211.64 365.627 1134.06 388.163 1115.48C409.779 1097.66 443.199 1111.06 443.199 1137.55V1142.4H478.079C521.419 1142.4 521.651 1142.2 513.367 1111.5C503.351 1074.38 473.835 1052.62 427.199 1047.99C410.259 1046.31 410.487 1046.31 393.187 1048.14ZM560.319 1054.72C556.667 1058.37 557.643 1315.62 561.323 1318.95C565.119 1322.38 623.163 1322.95 627.683 1319.6C630.091 1317.81 630.423 1312.4 630.787 1268.8L631.199 1220L642.399 1219.5C675.195 1218.03 676.315 1219.74 682.351 1280.8C683.743 1294.88 685.643 1309.82 686.571 1314L688.259 1321.6H723.327C762.563 1321.6 766.743 1320.52 763.227 1311.28C761.099 1305.68 757.515 1283.7 753.671 1252.67C748.639 1212.03 743.499 1199.55 728.207 1190.82L720.243 1186.26L727.119 1182.62C747.099 1172.02 755.515 1156.82 756.479 1129.6C758.019 1086.05 740.359 1059.97 705.599 1054.47C690.179 1052.03 562.791 1052.25 560.319 1054.72ZM803.623 1149.2C804.195 1243.42 804.287 1245.89 807.803 1258.24C821.775 1307.38 857.899 1329.68 919.999 1327.51C979.243 1325.45 1013.16 1301.48 1023.48 1254.4C1026.88 1238.85 1028.71 1058.95 1025.5 1055.08C1022.97 1052.04 961.735 1051.7 958.719 1054.72C957.275 1056.16 956.791 1077.49 956.775 1140.72C956.747 1231.53 956.379 1236.24 948.243 1250.13C932.579 1276.86 888.379 1270.41 879.375 1240.1C877.147 1232.58 876.799 1219.78 876.799 1144.76C876.799 1062.83 876.639 1057.95 873.875 1055.45C871.343 1053.16 866.343 1052.8 836.991 1052.8H803.039L803.623 1149.2ZM1071.45 1055.72C1068.1 1059.43 1067.46 1106.82 1070.72 1110.08C1072.13 1111.49 1085.55 1112 1121.12 1112C1147.78 1112 1169.6 1112.47 1169.6 1113.04C1169.6 1113.61 1164.67 1120.63 1158.65 1128.64C1149.2 1141.21 1115.12 1187 1074.13 1242.2L1062.4 1258V1287.15C1062.4 1313.36 1062.7 1316.57 1065.32 1318.95C1068.85 1322.14 1255.03 1323.09 1260.9 1319.94C1265.67 1317.4 1265.67 1265 1260.9 1262.46C1258.95 1261.41 1238.32 1260.8 1204.9 1260.8C1175.81 1260.8 1152 1260.44 1152 1260.01C1152 1259.58 1160.1 1248.59 1170 1235.58C1179.9 1222.58 1194.48 1203.42 1202.4 1193C1210.32 1182.59 1227.06 1160.67 1239.6 1144.3L1262.4 1114.53V1086.31C1262.4 1061.01 1262.1 1057.82 1259.48 1055.45C1254.73 1051.16 1075.34 1051.42 1071.45 1055.72ZM674.027 1112.54C689.211 1118.88 692.503 1143.32 680.055 1157.26L675.471 1162.4L652.935 1162.92L630.399 1163.44V1137.19C630.399 1122.75 630.939 1110.37 631.599 1109.67C633.491 1107.69 667.995 1110.02 674.027 1112.54Z" fill="#F9FAFB"/>
<path fill-rule="evenodd" clip-rule="evenodd" d="M0 800V1600H800H1600V800V0H800H0V800ZM992.484 217.688C1071.98 224.664 1120.84 269.632 1127.39 341.856C1128.38 352.716 1128.22 353.528 1124.29 357.456L1120.14 361.6L1072.47 361.58C1018.43 361.552 1017.6 361.456 1017.6 355.18C1017.6 300.2 944.344 289.408 918.508 340.588C898.444 380.328 897.12 468.94 915.972 509.844C940.648 563.372 1008.45 558.428 1017.47 502.44C1018.32 497.124 1019.47 492.06 1020.01 491.188C1020.62 490.192 1039.92 489.6 1071.82 489.6H1122.64L1126.36 493.552C1129.86 497.288 1130.01 498.288 1128.98 511.836C1123.18 588.736 1070.54 632.168 979.972 634.776C860.28 638.224 797.032 573.012 792.556 441.528C787.396 289.864 862.076 206.248 992.484 217.688ZM554.016 223.264L558.4 227.328L558.428 354.864C558.46 493.676 558.584 495.888 567.428 512.136C587.776 549.52 646.632 551.008 667.924 514.676C679.008 495.76 678.984 496.124 679.584 354.436L680.128 226.472L683.544 222.836C686.94 219.22 687.216 219.2 732.352 219.2H777.744L781.672 223.128L785.6 227.056L785.584 343.528C785.568 485.544 784.228 508.536 774.148 539.748C754.412 600.844 700.712 631.972 615.008 631.992C507.8 632.02 457.1 585.94 449.52 481.6C447.928 459.676 448.992 223.36 450.696 220.4C451.076 219.74 473.492 219.2 500.512 219.2H549.632L554.016 223.264ZM320.756 703.22C360.304 711.596 384 739.912 384 778.796C384 792.312 384.848 792 348 792C312.628 792 312.024 791.84 311.964 782.48C311.872 767.168 302.072 756.8 287.704 756.8C271.06 756.8 262.4 764.192 262.4 778.4C262.4 794.048 265.404 796.012 308.8 808.78C375.716 828.472 392.044 845.056 391.98 893.28C391.908 948.632 353.968 979.996 287.2 979.896C225.572 979.804 192.372 954.768 185.512 903.216C182.696 882.064 180.648 883.2 221.656 883.2H256V887.12C256 927.204 315.576 939.78 318.096 900.228C319.224 882.496 318.512 882.068 259.2 864.784C206.84 849.528 188.916 829.348 188.86 785.6C188.776 724.04 247.096 687.616 320.756 703.22ZM585.272 714.8C587.084 719.86 590 728.32 591.744 733.6C595.364 744.54 618.28 811.36 650.42 904.688C666.72 952.036 672.008 969.228 670.836 971.088C669.484 973.232 663.748 973.664 631.496 974.028L593.74 974.456L591.256 966.028C589.888 961.392 586.464 949.86 583.648 940.4L578.524 923.2H536.816H495.104L487.552 948.268C483.396 962.056 479.784 973.548 479.528 973.808C479.16 974.172 423.436 974.74 414.856 974.464C408.348 974.252 409.548 968.692 427.348 916.568C437.068 888.096 449.928 850.4 455.924 832.8C486.368 743.4 498.236 709.416 499.64 707.6C500.808 706.092 511.164 705.6 541.58 705.6H581.972L585.272 714.8ZM806.704 728.4C811.712 740.94 823.436 770.64 832.756 794.4C842.072 818.16 853.248 846.24 857.588 856.8L865.476 876L865.536 793.724C865.592 719.468 865.86 711.168 868.248 708.524C872.056 704.32 922.068 704.08 926.676 708.248C930.356 711.58 931.332 968.828 927.68 972.48C926.28 973.88 913.784 974.4 881.476 974.4H837.188L835.476 970C834.536 967.58 829.36 954.08 823.972 940C815 916.556 809.572 902.48 791.896 856.8C788.492 848 781.752 830.72 776.92 818.4L768.136 796L768.068 883.28C768.016 948.952 767.524 971.036 766.08 972.48C764.732 973.828 755.768 974.4 736 974.4C716.232 974.4 707.268 973.828 705.92 972.48C702.508 969.068 703.216 712.32 706.648 708.524C709.092 705.824 712.704 705.6 753.448 705.6L797.6 705.604L806.704 728.4ZM1171.48 708.248C1175.42 711.816 1175.96 761.516 1172.09 764.724C1170.45 766.088 1160.31 766.588 1136.89 766.464L1104 766.292V868.552C1104 950.736 1103.59 971.148 1101.91 972.544C1098.85 975.084 1037.37 975.268 1034.33 972.74C1032.37 971.12 1031.96 955.372 1031.61 869.012L1031.2 767.2L999.288 766.764C958.488 766.208 961.6 768.704 961.6 736.552C961.6 714.132 961.88 711.72 964.8 708.8C969.352 704.248 1166.47 703.724 1171.48 708.248ZM1324.8 706.196C1324.8 706.52 1331.71 726.86 1340.16 751.396C1348.61 775.928 1356.84 799.96 1358.45 804.8C1360.06 809.64 1370.14 839.16 1380.85 870.4C1415.7 972.068 1414.45 968.116 1412.7 971.392C1409.95 976.532 1337.2 975.976 1334.94 970.8C1334.08 968.82 1330.56 957.3 1327.1 945.2L1320.83 923.2H1278.82C1255.71 923.2 1236.8 923.452 1236.8 923.76C1236.8 924.224 1225.84 962.296 1223.03 971.6C1221.8 975.66 1156.84 975.9 1153.48 971.86C1151.69 969.704 1153.14 964.18 1163.03 935.46C1179.6 887.352 1212.47 791.372 1216.28 780C1223.55 758.304 1237.14 718.748 1239.5 712.4L1242.04 705.6H1283.42C1306.18 705.6 1324.8 705.868 1324.8 706.196ZM537.24 780.156C536.772 780.948 531.988 797.08 526.612 816C521.236 834.92 515.784 853.82 514.496 858L512.152 865.6H536.764H561.376L556.532 847.6C553.868 837.7 548.628 818.148 544.892 804.156C541.152 790.16 537.708 779.36 537.24 780.156ZM1269.01 815.6C1263.58 834.74 1258.11 853.82 1256.85 858L1254.55 865.6H1279.01H1303.46L1298.41 846.8C1295.64 836.46 1290.54 817.38 1287.08 804.4C1283.63 791.42 1280.37 780.8 1279.84 780.8C1279.32 780.8 1274.44 796.46 1269.01 815.6ZM427.2 1047.99C473.836 1052.62 503.352 1074.38 513.368 1111.5C521.652 1142.2 521.42 1142.4 478.08 1142.4H443.2V1137.55C443.2 1121.17 428.588 1107.24 411.384 1107.21C382.552 1107.16 367.96 1134.14 367.796 1187.81C367.636 1241.83 380.588 1264.8 411.22 1264.8C431.16 1264.8 439.488 1257.92 443.36 1238.24L445.216 1228.8H479.888C518.412 1228.8 518.416 1228.8 518.372 1239.12C518.172 1286.06 484.356 1318.86 429.972 1324.85C345.064 1334.21 292.8 1282.07 292.8 1188C292.8 1108.98 331.816 1054.63 393.188 1048.14C410.488 1046.31 410.26 1046.31 427.2 1047.99ZM705.6 1054.47C740.36 1059.97 758.02 1086.05 756.48 1129.6C755.516 1156.82 747.1 1172.02 727.12 1182.62L720.244 1186.26L728.208 1190.82C743.5 1199.55 748.64 1212.03 753.672 1252.67C757.516 1283.7 761.1 1305.68 763.228 1311.28C766.744 1320.52 762.564 1321.6 723.328 1321.6H688.26L686.572 1314C685.644 1309.82 683.744 1294.88 682.352 1280.8C676.316 1219.74 675.196 1218.03 642.4 1219.5L631.2 1220L630.788 1268.8C630.424 1312.4 630.092 1317.81 627.684 1319.6C623.164 1322.95 565.12 1322.38 561.324 1318.95C557.644 1315.62 556.668 1058.37 560.32 1054.72C562.792 1052.25 690.18 1052.03 705.6 1054.47ZM873.876 1055.45C876.64 1057.95 876.8 1062.83 876.8 1144.76C876.8 1219.78 877.148 1232.58 879.376 1240.1C888.38 1270.41 932.58 1276.86 948.244 1250.13C956.38 1236.24 956.748 1231.53 956.776 1140.72C956.792 1077.49 957.276 1056.16 958.72 1054.72C961.736 1051.7 1022.97 1052.04 1025.5 1055.08C1028.71 1058.95 1026.88 1238.85 1023.48 1254.4C1013.16 1301.48 979.244 1325.45 920 1327.51C857.9 1329.68 821.776 1307.38 807.804 1258.24C804.288 1245.89 804.196 1243.42 803.624 1149.2L803.04 1052.8H836.992C866.344 1052.8 871.344 1053.16 873.876 1055.45ZM1259.48 1055.45C1262.1 1057.82 1262.4 1061.01 1262.4 1086.31V1114.53L1239.6 1144.3C1227.06 1160.67 1210.32 1182.59 1202.4 1193C1194.48 1203.42 1179.9 1222.58 1170 1235.58C1160.1 1248.59 1152 1259.58 1152 1260.01C1152 1260.44 1175.81 1260.8 1204.9 1260.8C1238.32 1260.8 1258.95 1261.41 1260.9 1262.46C1265.67 1265 1265.67 1317.4 1260.9 1319.94C1255.03 1323.09 1068.85 1322.14 1065.32 1318.95C1062.7 1316.57 1062.4 1313.36 1062.4 1287.15V1258L1074.13 1242.2C1115.12 1187 1149.2 1141.21 1158.65 1128.64C1164.67 1120.63 1169.6 1113.61 1169.6 1113.04C1169.6 1112.47 1147.78 1112 1121.12 1112C1085.55 1112 1072.13 1111.49 1070.72 1110.08C1067.46 1106.82 1068.1 1059.43 1071.45 1055.72C1075.34 1051.42 1254.73 1051.16 1259.48 1055.45ZM631.6 1109.67C630.94 1110.37 630.4 1122.75 630.4 1137.19V1163.44L652.936 1162.92L675.472 1162.4L680.056 1157.26C692.504 1143.32 689.212 1118.88 674.028 1112.54C667.996 1110.02 633.492 1107.69 631.6 1109.67Z" fill="#043B6B"/>
<path fill-rule="evenodd" clip-rule="evenodd" d="M945.6 217.676C845.516 226.74 788.104 310.716 792.556 441.528C797.032 573.012 860.28 638.224 979.972 634.776C1070.54 632.168 1123.18 588.736 1128.98 511.836C1130.01 498.288 1129.86 497.288 1126.36 493.552L1122.64 489.6H1071.82C1039.92 489.6 1020.62 490.192 1020.01 491.188C1019.47 492.06 1018.32 497.124 1017.47 502.44C1008.45 558.428 940.648 563.372 915.972 509.844C897.12 468.94 898.444 380.328 918.508 340.588C944.344 289.408 1017.6 300.2 1017.6 355.18C1017.6 361.456 1018.43 361.552 1072.47 361.58L1120.14 361.6L1124.29 357.456C1128.22 353.528 1128.38 352.716 1127.39 341.856C1119.58 255.708 1050.06 208.22 945.6 217.676ZM450.696 220.4C448.992 223.36 447.928 459.676 449.52 481.6C457.1 585.94 507.8 632.02 615.008 631.992C700.712 631.972 754.412 600.844 774.148 539.748C784.228 508.536 785.568 485.544 785.584 343.528L785.6 227.056L781.672 223.128L777.744 219.2H732.352C687.216 219.2 686.94 219.22 683.544 222.836L680.128 226.472L679.584 354.436C678.984 496.124 679.008 495.76 667.924 514.676C646.632 551.008 587.776 549.52 567.428 512.136C558.584 495.888 558.46 493.676 558.428 354.864L558.4 227.328L554.016 223.264L549.632 219.2H500.512C473.492 219.2 451.076 219.74 450.696 220.4Z" fill="#F9C408"/>
</svg>
