<svg xmlns="http://www.w3.org/2000/svg" viewBox="0 0 125.05 156.82"><defs><style>.cls-1{fill:none;stroke:white;stroke-miterlimit:10;stroke-width:4px;}</style></defs><title>black atari</title><g id="Layer_2" data-name="Layer 2"><g id="Layer_1-2" data-name="Layer 1"><rect class="cls-1" x="2.27" y="121.95" width="120.5" height="32.87"/><ellipse class="cls-1" cx="61.69" cy="8.11" rx="11.66" ry="6.11"/><path class="cls-1" d="M73.35,83.63c0,3.37-5.22,6.11-11.66,6.11S50,87,50,83.63"/><ellipse class="cls-1" cx="19.76" cy="111.46" rx="10.27" ry="4.51"/><path class="cls-1" d="M49.39,82.84c-7,1.48-11.7,4.11-11.7,7.12,0,4.62,11,8.36,24.57,8.36S86.84,94.58,86.84,90c0-3.33-4.63-6.1-12.93-7.44"/><path class="cls-1" d="M50,72.5C35.17,75.23,24.48,82.78,24.48,91.68c0,11.2,16.91,20.27,37.76,20.27S100,102.88,100,91.68c0-9.12-11.22-16.83-26.65-19.37"/><polyline class="cls-1" points="50.03 65.52 9.49 65.31 2.27 121.95 122.77 121.95 115.55 65.86 73.35 65.64"/><line class="cls-1" x1="73.35" y1="83.63" x2="73.35" y2="8.11"/><line class="cls-1" x1="50.03" y1="8.11" x2="50.03" y2="83.63"/></g></g></svg>