<svg xmlns="http://www.w3.org/2000/svg" viewBox="0 0 284.5 221.61"><defs><style>.cls-1,.cls-2{fill:none;stroke:white;}.cls-1{stroke-linecap:round;stroke-linejoin:round;stroke-width:6px;}.cls-2{stroke-miterlimit:10;stroke-width:9px;}</style></defs><title>Checkers_1</title><g id="Layer_2" data-name="Layer 2"><g id="Layer_1-2" data-name="Layer 1"><path class="cls-1" d="M43.43,40.43c0-29.42,107.8-29.42,107.8,0"/><ellipse class="cls-1" cx="97.33" cy="35.94" rx="23.96" ry="4.49"/><line class="cls-2" x1="187.17" y1="31.45" x2="187.17" y2="97.33"/><ellipse class="cls-2" cx="95.83" cy="31.45" rx="91.33" ry="26.95"/><line class="cls-2" x1="4.5" y1="97.33" x2="4.5" y2="31.45"/><path class="cls-2" d="M4.5,97.33c0,14.89,40.89,27,91.33,27"/><ellipse class="cls-2" cx="188.67" cy="124.28" rx="91.33" ry="26.95"/><line class="cls-2" x1="97.33" y1="190.16" x2="97.33" y2="124.28"/><line class="cls-2" x1="280" y1="124.28" x2="280" y2="190.16"/><path class="cls-2" d="M97.33,190.16c0,14.89,40.89,27,91.34,27"/><path class="cls-2" d="M280,190.16c0,14.89-42.39,27-92.83,27"/></g></g></svg>