<svg xmlns="http://www.w3.org/2000/svg" viewBox="0 0 310 290.04"><defs><style>.cls-1{fill:none;}.cls-1,.cls-2{stroke:white;stroke-linecap:round;stroke-linejoin:round;stroke-width:9px;}.cls-2{fill:white;}</style></defs><title>Connect 4_1</title><g id="Layer_2" data-name="Layer 2"><g id="Layer_1-2" data-name="Layer 1"><rect class="cls-1" x="21.28" y="4.5" width="268.29" height="245.49"/><path class="cls-1" d="M288.9,249.32q22.14,18.1,14.76,36.22H4.51q-.37-28.21,16.1-36.22"/><line class="cls-1" x1="19.58" y1="271.46" x2="31.65" y2="271.46"/><line class="cls-1" x1="47.75" y1="271.46" x2="113.48" y2="271.46"/><circle class="cls-1" cx="65.55" cy="40.72" r="18.11"/><circle class="cls-1" cx="128.59" cy="40.72" r="18.11"/><circle class="cls-1" cx="186.28" cy="40.72" r="18.11"/><circle class="cls-1" cx="246.64" cy="40.72" r="18.11"/><circle class="cls-1" cx="65.55" cy="101.09" r="18.11"/><circle class="cls-1" cx="128.59" cy="101.09" r="18.11"/><circle class="cls-1" cx="186.28" cy="101.09" r="18.11"/><circle class="cls-1" cx="246.64" cy="101.09" r="18.11"/><circle class="cls-1" cx="65.55" cy="161.45" r="18.11"/><circle class="cls-1" cx="128.59" cy="161.45" r="18.11"/><circle class="cls-1" cx="186.28" cy="161.45" r="18.11"/><circle class="cls-1" cx="246.64" cy="161.45" r="18.11"/><circle class="cls-2" cx="65.55" cy="217.79" r="18.11"/><circle class="cls-2" cx="128.59" cy="217.79" r="18.11"/><circle class="cls-2" cx="186.28" cy="217.79" r="18.11"/><circle class="cls-2" cx="246.64" cy="217.79" r="18.11"/></g></g></svg>