<svg xmlns="http://www.w3.org/2000/svg" viewBox="0 0 171.5 171.5"><defs><style>.cls-1{fill:none;stroke:#fff;stroke-miterlimit:10;stroke-width:5px;}</style></defs><title>white dna</title><g id="Layer_2" data-name="Layer 2"><g id="Layer_1-2" data-name="Layer 1"><circle class="cls-1" cx="85.41" cy="13.16" r="10.66"/><circle class="cls-1" cx="85.41" cy="86.09" r="10.66"/><circle class="cls-1" cx="85.41" cy="158.34" r="10.66"/><circle class="cls-1" cx="158.34" cy="121.87" r="10.66"/><circle class="cls-1" cx="158.34" cy="49.63" r="10.66"/><circle class="cls-1" cx="13.16" cy="49.63" r="10.66"/><circle class="cls-1" cx="13.16" cy="121.87" r="10.66"/><line class="cls-1" x1="22.12" y1="43.84" x2="74.74" y2="18.71"/><line class="cls-1" x1="18.71" y1="58.74" x2="79.7" y2="148.48"/><line class="cls-1" x1="23.83" y1="127.6" x2="74.74" y2="152.49"/><line class="cls-1" x1="79.7" y1="22.17" x2="18.71" y2="112.76"/><line class="cls-1" x1="23.83" y1="55.01" x2="74.74" y2="81.17"/><line class="cls-1" x1="96.07" y1="91.47" x2="148.36" y2="118.09"/><line class="cls-1" x1="23.83" y1="116.43" x2="74.74" y2="91.47"/><line class="cls-1" x1="94.87" y1="81.17" x2="147.67" y2="55.01"/><line class="cls-1" x1="96.07" y1="18.71" x2="147.67" y2="43.43"/><line class="cls-1" x1="91.31" y1="23.83" x2="152.73" y2="111.21"/><line class="cls-1" x1="96.07" y1="152.49" x2="147.67" y2="127.72"/><line class="cls-1" x1="152.73" y1="58.74" x2="91.25" y2="149.74"/></g></g></svg>