<svg xmlns="http://www.w3.org/2000/svg" viewBox="0 0 179.86 156.52"><defs><style>.cls-1{fill:none;stroke:white;stroke-miterlimit:10;stroke-width:4px;}.cls-2{fill:white;}</style></defs><title>black laptop</title><g id="Layer_2" data-name="Layer 2"><g id="Layer_1-2" data-name="Layer 1"><path class="cls-1" d="M17,6.05v97.27h145.9V6.05a4,4,0,0,0-4-4H21A4,4,0,0,0,17,6.05ZM33.7,15.61H145.81V85.68H33.7Z"/><path class="cls-1" d="M162.88,114H17L2.27,150.76a2.55,2.55,0,0,0,2.55,3.76H175a2.55,2.55,0,0,0,2.55-3.76ZM70.81,142.5l1.92-8.1h34.41l1.91,8.1Z"/><path class="cls-2" d="M105.37,46.86h-1.54v-5a13.9,13.9,0,0,0-27.8,0v5H74.49a2.88,2.88,0,0,0-2.88,2.88V70.43a2.88,2.88,0,0,0,2.88,2.88h30.89a2.89,2.89,0,0,0,2.88-2.88V49.74A2.9,2.9,0,0,0,105.37,46.86ZM91.86,60.1v4.76a.27.27,0,0,1-.28.28H88.29a.28.28,0,0,1-.29-.28V60.1a4.32,4.32,0,1,1,3.86,0Zm6.79-13.24H81.21v-5a8.72,8.72,0,0,1,17.44,0Z"/></g></g></svg>